G04*
G04 #@! TF.GenerationSoftware,Altium Limited,Altium Designer,26.9.1 (10)*
G04*
G04 Layer_Color=16711935*
G04 Board_Origin=0|0*
%FSLAX44Y44*%
%MOMM*%
G71*
G04*
G04 #@! TF.SameCoordinates,2B30B767-B6A9-40EE-994A-0163BAC84609*
G04*
G04*
G04 #@! TF.FilePolarity,Positive*
G04*
G01*
G75*
%ADD12C,0.2000*%
G36*
X1190000Y632060D02*
X1184998D01*
X1185007Y632051D01*
X1185044Y632005D01*
X1185100Y631949D01*
X1185165Y631857D01*
X1185248Y631755D01*
X1185340Y631626D01*
X1185442Y631478D01*
X1185544Y631311D01*
Y631302D01*
X1185553Y631293D01*
X1185590Y631237D01*
X1185636Y631145D01*
X1185692Y631034D01*
X1185756Y630905D01*
X1185821Y630766D01*
X1185886Y630627D01*
X1185941Y630489D01*
X1185183D01*
Y630498D01*
X1185165Y630516D01*
X1185155Y630553D01*
X1185128Y630599D01*
X1185100Y630655D01*
X1185063Y630720D01*
X1184970Y630877D01*
X1184869Y631062D01*
X1184739Y631247D01*
X1184591Y631441D01*
X1184434Y631635D01*
X1184425Y631644D01*
X1184416Y631653D01*
X1184388Y631681D01*
X1184360Y631718D01*
X1184268Y631801D01*
X1184157Y631912D01*
X1184027Y632023D01*
X1183879Y632144D01*
X1183732Y632245D01*
X1183574Y632338D01*
Y632846D01*
X1190000D01*
Y632060D01*
D02*
G37*
G36*
Y628334D02*
X1188669Y627493D01*
X1188660D01*
X1188641Y627474D01*
X1188613Y627456D01*
X1188576Y627428D01*
X1188475Y627364D01*
X1188345Y627280D01*
X1188206Y627179D01*
X1188058Y627077D01*
X1187920Y626975D01*
X1187790Y626883D01*
X1187781Y626874D01*
X1187744Y626846D01*
X1187689Y626800D01*
X1187624Y626735D01*
X1187485Y626596D01*
X1187421Y626522D01*
X1187365Y626448D01*
X1187356Y626439D01*
X1187347Y626420D01*
X1187328Y626384D01*
X1187300Y626328D01*
X1187273Y626273D01*
X1187245Y626208D01*
X1187199Y626060D01*
Y626051D01*
X1187189Y626032D01*
Y625995D01*
X1187180Y625949D01*
X1187171Y625884D01*
Y625810D01*
X1187162Y625709D01*
Y624618D01*
X1190000D01*
Y623767D01*
X1183602D01*
Y626735D01*
X1183611Y626809D01*
Y626892D01*
X1183621Y627086D01*
X1183648Y627290D01*
X1183676Y627511D01*
X1183722Y627715D01*
X1183750Y627817D01*
X1183778Y627900D01*
Y627909D01*
X1183787Y627918D01*
X1183815Y627974D01*
X1183852Y628057D01*
X1183916Y628159D01*
X1184000Y628270D01*
X1184111Y628390D01*
X1184240Y628501D01*
X1184388Y628612D01*
X1184397D01*
X1184407Y628621D01*
X1184462Y628658D01*
X1184554Y628695D01*
X1184675Y628750D01*
X1184813Y628797D01*
X1184980Y628843D01*
X1185155Y628871D01*
X1185350Y628880D01*
X1185359D01*
X1185377D01*
X1185414D01*
X1185461Y628871D01*
X1185525D01*
X1185590Y628861D01*
X1185747Y628824D01*
X1185932Y628769D01*
X1186126Y628695D01*
X1186320Y628584D01*
X1186413Y628510D01*
X1186505Y628436D01*
X1186515Y628427D01*
X1186524Y628418D01*
X1186552Y628390D01*
X1186579Y628353D01*
X1186616Y628307D01*
X1186653Y628251D01*
X1186699Y628177D01*
X1186755Y628103D01*
X1186801Y628011D01*
X1186847Y627909D01*
X1186903Y627798D01*
X1186949Y627678D01*
X1186986Y627539D01*
X1187032Y627401D01*
X1187060Y627243D01*
X1187088Y627077D01*
X1187097Y627095D01*
X1187115Y627132D01*
X1187152Y627188D01*
X1187189Y627262D01*
X1187291Y627428D01*
X1187356Y627511D01*
X1187411Y627585D01*
X1187430Y627604D01*
X1187476Y627650D01*
X1187550Y627724D01*
X1187643Y627817D01*
X1187772Y627918D01*
X1187911Y628038D01*
X1188077Y628159D01*
X1188262Y628288D01*
X1190000Y629388D01*
Y628334D01*
D02*
G37*
G36*
X943321Y866527D02*
X943441Y866509D01*
X943589Y866481D01*
X943755Y866435D01*
X943922Y866379D01*
X944088Y866305D01*
X944098D01*
X944107Y866296D01*
X944162Y866268D01*
X944246Y866213D01*
X944338Y866148D01*
X944449Y866056D01*
X944560Y865954D01*
X944671Y865834D01*
X944763Y865695D01*
X944772Y865677D01*
X944800Y865630D01*
X944837Y865547D01*
X944883Y865445D01*
X944930Y865325D01*
X944967Y865187D01*
X944994Y865030D01*
X945004Y864872D01*
Y864854D01*
Y864798D01*
X944994Y864724D01*
X944976Y864623D01*
X944948Y864502D01*
X944902Y864373D01*
X944846Y864244D01*
X944772Y864114D01*
X944763Y864096D01*
X944735Y864059D01*
X944680Y863994D01*
X944606Y863920D01*
X944514Y863837D01*
X944403Y863744D01*
X944273Y863661D01*
X944116Y863578D01*
X944125D01*
X944144Y863569D01*
X944172Y863559D01*
X944209Y863550D01*
X944310Y863513D01*
X944440Y863458D01*
X944588Y863384D01*
X944735Y863291D01*
X944874Y863171D01*
X945004Y863032D01*
X945013Y863014D01*
X945050Y862959D01*
X945105Y862866D01*
X945161Y862746D01*
X945216Y862598D01*
X945272Y862422D01*
X945309Y862219D01*
X945318Y861997D01*
Y861988D01*
Y861960D01*
Y861914D01*
X945309Y861858D01*
X945300Y861784D01*
X945281Y861701D01*
X945263Y861609D01*
X945244Y861507D01*
X945170Y861285D01*
X945115Y861165D01*
X945059Y861054D01*
X944985Y860934D01*
X944902Y860814D01*
X944809Y860693D01*
X944698Y860582D01*
X944689Y860573D01*
X944671Y860555D01*
X944634Y860527D01*
X944588Y860490D01*
X944532Y860444D01*
X944458Y860397D01*
X944375Y860342D01*
X944273Y860296D01*
X944172Y860240D01*
X944051Y860185D01*
X943931Y860139D01*
X943792Y860092D01*
X943644Y860055D01*
X943487Y860028D01*
X943330Y860009D01*
X943155Y860000D01*
X943071D01*
X943016Y860009D01*
X942942Y860018D01*
X942859Y860028D01*
X942766Y860046D01*
X942664Y860065D01*
X942443Y860120D01*
X942212Y860212D01*
X942091Y860268D01*
X941980Y860333D01*
X941869Y860416D01*
X941758Y860499D01*
X941749Y860508D01*
X941731Y860527D01*
X941703Y860555D01*
X941675Y860592D01*
X941629Y860638D01*
X941583Y860703D01*
X941527Y860767D01*
X941472Y860851D01*
X941416Y860943D01*
X941361Y861035D01*
X941259Y861257D01*
X941176Y861516D01*
X941148Y861655D01*
X941130Y861803D01*
X941916Y861905D01*
Y861895D01*
X941925Y861877D01*
X941934Y861840D01*
X941943Y861794D01*
X941953Y861738D01*
X941971Y861673D01*
X942017Y861535D01*
X942082Y861368D01*
X942165Y861211D01*
X942258Y861063D01*
X942369Y860934D01*
X942387Y860924D01*
X942424Y860888D01*
X942498Y860841D01*
X942590Y860795D01*
X942701Y860740D01*
X942840Y860693D01*
X942997Y860656D01*
X943164Y860647D01*
X943219D01*
X943256Y860656D01*
X943358Y860666D01*
X943487Y860693D01*
X943635Y860740D01*
X943792Y860804D01*
X943950Y860897D01*
X944098Y861026D01*
X944116Y861045D01*
X944162Y861100D01*
X944218Y861183D01*
X944292Y861294D01*
X944366Y861433D01*
X944421Y861590D01*
X944467Y861775D01*
X944486Y861978D01*
Y861988D01*
Y862006D01*
Y862034D01*
X944477Y862071D01*
X944467Y862173D01*
X944440Y862293D01*
X944403Y862441D01*
X944338Y862589D01*
X944246Y862737D01*
X944125Y862875D01*
X944107Y862894D01*
X944061Y862931D01*
X943987Y862986D01*
X943885Y863051D01*
X943755Y863116D01*
X943598Y863171D01*
X943423Y863208D01*
X943229Y863227D01*
X943145D01*
X943081Y863217D01*
X942997Y863208D01*
X942905Y863190D01*
X942794Y863171D01*
X942674Y863143D01*
X942766Y863837D01*
X942812D01*
X942849Y863828D01*
X942970D01*
X943071Y863846D01*
X943192Y863865D01*
X943330Y863892D01*
X943487Y863939D01*
X943635Y864003D01*
X943792Y864086D01*
X943802D01*
X943811Y864096D01*
X943857Y864133D01*
X943922Y864197D01*
X943996Y864281D01*
X944070Y864401D01*
X944135Y864539D01*
X944181Y864697D01*
X944199Y864789D01*
Y864891D01*
Y864900D01*
Y864909D01*
Y864965D01*
X944181Y865039D01*
X944162Y865140D01*
X944125Y865251D01*
X944079Y865372D01*
X944005Y865492D01*
X943903Y865603D01*
X943894Y865612D01*
X943848Y865649D01*
X943783Y865695D01*
X943700Y865751D01*
X943589Y865797D01*
X943460Y865843D01*
X943312Y865880D01*
X943145Y865889D01*
X943071D01*
X942988Y865871D01*
X942877Y865852D01*
X942757Y865815D01*
X942637Y865769D01*
X942507Y865695D01*
X942387Y865603D01*
X942378Y865593D01*
X942341Y865547D01*
X942285Y865482D01*
X942221Y865390D01*
X942156Y865270D01*
X942091Y865122D01*
X942036Y864946D01*
X941999Y864743D01*
X941213Y864882D01*
Y864891D01*
X941222Y864919D01*
X941231Y864956D01*
X941241Y865011D01*
X941259Y865076D01*
X941287Y865150D01*
X941342Y865325D01*
X941435Y865529D01*
X941546Y865732D01*
X941684Y865926D01*
X941860Y866102D01*
X941869Y866111D01*
X941888Y866121D01*
X941916Y866139D01*
X941953Y866167D01*
X941999Y866204D01*
X942064Y866241D01*
X942128Y866278D01*
X942212Y866324D01*
X942396Y866398D01*
X942609Y866472D01*
X942859Y866518D01*
X942988Y866536D01*
X943219D01*
X943321Y866527D01*
D02*
G37*
G36*
X938042Y866499D02*
X938125D01*
X938319Y866490D01*
X938522Y866463D01*
X938744Y866435D01*
X938948Y866389D01*
X939050Y866361D01*
X939133Y866333D01*
X939142D01*
X939151Y866324D01*
X939207Y866296D01*
X939290Y866259D01*
X939391Y866194D01*
X939502Y866111D01*
X939623Y866000D01*
X939734Y865871D01*
X939845Y865723D01*
Y865714D01*
X939854Y865704D01*
X939891Y865649D01*
X939928Y865556D01*
X939983Y865436D01*
X940030Y865298D01*
X940076Y865131D01*
X940104Y864956D01*
X940113Y864761D01*
Y864752D01*
Y864734D01*
Y864697D01*
X940104Y864650D01*
Y864586D01*
X940094Y864521D01*
X940057Y864364D01*
X940002Y864179D01*
X939928Y863985D01*
X939817Y863791D01*
X939743Y863698D01*
X939669Y863606D01*
X939660Y863596D01*
X939650Y863587D01*
X939623Y863559D01*
X939586Y863532D01*
X939539Y863495D01*
X939484Y863458D01*
X939410Y863411D01*
X939336Y863356D01*
X939244Y863310D01*
X939142Y863264D01*
X939031Y863208D01*
X938911Y863162D01*
X938772Y863125D01*
X938633Y863079D01*
X938476Y863051D01*
X938310Y863023D01*
X938328Y863014D01*
X938365Y862996D01*
X938421Y862959D01*
X938495Y862922D01*
X938661Y862820D01*
X938744Y862755D01*
X938818Y862700D01*
X938837Y862681D01*
X938883Y862635D01*
X938957Y862561D01*
X939050Y862468D01*
X939151Y862339D01*
X939271Y862200D01*
X939391Y862034D01*
X939521Y861849D01*
X940621Y860111D01*
X939567D01*
X938726Y861442D01*
Y861451D01*
X938707Y861470D01*
X938689Y861498D01*
X938661Y861535D01*
X938596Y861636D01*
X938513Y861766D01*
X938411Y861905D01*
X938310Y862052D01*
X938208Y862191D01*
X938116Y862320D01*
X938106Y862330D01*
X938079Y862367D01*
X938032Y862422D01*
X937968Y862487D01*
X937829Y862626D01*
X937755Y862690D01*
X937681Y862746D01*
X937672Y862755D01*
X937653Y862764D01*
X937616Y862783D01*
X937561Y862811D01*
X937505Y862838D01*
X937441Y862866D01*
X937293Y862912D01*
X937283D01*
X937265Y862922D01*
X937228D01*
X937182Y862931D01*
X937117Y862940D01*
X937043D01*
X936942Y862949D01*
X935851D01*
Y860111D01*
X935000D01*
Y866509D01*
X937968D01*
X938042Y866499D01*
D02*
G37*
G36*
X976233Y853602D02*
X973265D01*
X973191Y853611D01*
X973108D01*
X972914Y853621D01*
X972710Y853648D01*
X972489Y853676D01*
X972285Y853722D01*
X972184Y853750D01*
X972100Y853778D01*
X972091D01*
X972082Y853787D01*
X972026Y853815D01*
X971943Y853852D01*
X971841Y853916D01*
X971730Y854000D01*
X971610Y854111D01*
X971499Y854240D01*
X971388Y854388D01*
Y854397D01*
X971379Y854407D01*
X971342Y854462D01*
X971305Y854554D01*
X971250Y854675D01*
X971203Y854813D01*
X971157Y854980D01*
X971130Y855155D01*
X971120Y855350D01*
Y855359D01*
Y855377D01*
Y855414D01*
X971130Y855461D01*
Y855525D01*
X971139Y855590D01*
X971176Y855747D01*
X971231Y855932D01*
X971305Y856126D01*
X971416Y856320D01*
X971490Y856413D01*
X971564Y856505D01*
X971573Y856515D01*
X971582Y856524D01*
X971610Y856552D01*
X971647Y856579D01*
X971693Y856616D01*
X971749Y856653D01*
X971823Y856699D01*
X971897Y856755D01*
X971989Y856801D01*
X972091Y856847D01*
X972202Y856903D01*
X972322Y856949D01*
X972461Y856986D01*
X972599Y857032D01*
X972757Y857060D01*
X972923Y857088D01*
X972905Y857097D01*
X972868Y857115D01*
X972812Y857152D01*
X972738Y857189D01*
X972572Y857291D01*
X972489Y857356D01*
X972415Y857411D01*
X972396Y857430D01*
X972350Y857476D01*
X972276Y857550D01*
X972184Y857643D01*
X972082Y857772D01*
X971962Y857911D01*
X971841Y858077D01*
X971712Y858262D01*
X970612Y860000D01*
X971666D01*
X972507Y858669D01*
Y858660D01*
X972525Y858641D01*
X972544Y858613D01*
X972572Y858576D01*
X972636Y858475D01*
X972720Y858345D01*
X972821Y858206D01*
X972923Y858058D01*
X973025Y857920D01*
X973117Y857790D01*
X973127Y857781D01*
X973154Y857744D01*
X973201Y857689D01*
X973265Y857624D01*
X973404Y857485D01*
X973478Y857421D01*
X973552Y857365D01*
X973561Y857356D01*
X973579Y857347D01*
X973616Y857328D01*
X973672Y857300D01*
X973727Y857273D01*
X973792Y857245D01*
X973940Y857199D01*
X973949D01*
X973968Y857189D01*
X974005D01*
X974051Y857180D01*
X974116Y857171D01*
X974190D01*
X974291Y857162D01*
X975382D01*
Y860000D01*
X976233D01*
Y853602D01*
D02*
G37*
G36*
X970223Y859991D02*
Y859954D01*
Y859898D01*
X970214Y859824D01*
X970205Y859741D01*
X970186Y859649D01*
X970168Y859556D01*
X970131Y859455D01*
Y859445D01*
X970122Y859436D01*
X970103Y859381D01*
X970066Y859297D01*
X970011Y859186D01*
X969937Y859057D01*
X969844Y858909D01*
X969743Y858761D01*
X969613Y858604D01*
Y858595D01*
X969595Y858586D01*
X969548Y858530D01*
X969465Y858447D01*
X969345Y858327D01*
X969206Y858188D01*
X969031Y858021D01*
X968818Y857837D01*
X968587Y857643D01*
X968578Y857633D01*
X968541Y857606D01*
X968485Y857559D01*
X968420Y857504D01*
X968337Y857430D01*
X968236Y857347D01*
X968134Y857254D01*
X968014Y857152D01*
X967783Y856930D01*
X967551Y856709D01*
X967440Y856598D01*
X967339Y856487D01*
X967246Y856385D01*
X967172Y856283D01*
Y856274D01*
X967154Y856265D01*
X967135Y856237D01*
X967117Y856200D01*
X967052Y856098D01*
X966978Y855978D01*
X966914Y855830D01*
X966849Y855673D01*
X966812Y855498D01*
X966793Y855331D01*
Y855322D01*
Y855313D01*
X966803Y855257D01*
X966812Y855165D01*
X966840Y855063D01*
X966877Y854933D01*
X966941Y854804D01*
X967024Y854675D01*
X967135Y854545D01*
X967154Y854527D01*
X967200Y854490D01*
X967265Y854444D01*
X967366Y854379D01*
X967496Y854323D01*
X967644Y854268D01*
X967820Y854231D01*
X968014Y854222D01*
X968069D01*
X968106Y854231D01*
X968217Y854240D01*
X968346Y854268D01*
X968485Y854305D01*
X968642Y854370D01*
X968790Y854453D01*
X968929Y854564D01*
X968948Y854582D01*
X968985Y854628D01*
X969040Y854702D01*
X969095Y854813D01*
X969160Y854943D01*
X969216Y855109D01*
X969253Y855294D01*
X969271Y855507D01*
X970076Y855424D01*
Y855414D01*
X970066Y855387D01*
Y855340D01*
X970057Y855276D01*
X970039Y855202D01*
X970020Y855118D01*
X969992Y855017D01*
X969965Y854915D01*
X969891Y854693D01*
X969780Y854471D01*
X969715Y854360D01*
X969632Y854249D01*
X969548Y854148D01*
X969456Y854055D01*
X969447Y854046D01*
X969428Y854037D01*
X969400Y854009D01*
X969354Y853981D01*
X969299Y853944D01*
X969234Y853907D01*
X969160Y853861D01*
X969068Y853815D01*
X968966Y853768D01*
X968855Y853722D01*
X968735Y853685D01*
X968605Y853648D01*
X968467Y853621D01*
X968319Y853593D01*
X968162Y853584D01*
X967995Y853574D01*
X967903D01*
X967838Y853584D01*
X967764Y853593D01*
X967672Y853602D01*
X967570Y853621D01*
X967468Y853639D01*
X967228Y853704D01*
X966987Y853796D01*
X966867Y853852D01*
X966747Y853916D01*
X966636Y854000D01*
X966534Y854092D01*
X966525Y854101D01*
X966507Y854111D01*
X966488Y854148D01*
X966451Y854185D01*
X966405Y854231D01*
X966359Y854296D01*
X966312Y854360D01*
X966257Y854444D01*
X966165Y854619D01*
X966072Y854841D01*
X966035Y854952D01*
X966017Y855081D01*
X965998Y855211D01*
X965989Y855350D01*
Y855368D01*
Y855414D01*
X965998Y855488D01*
X966007Y855590D01*
X966026Y855701D01*
X966063Y855830D01*
X966100Y855969D01*
X966155Y856108D01*
X966165Y856126D01*
X966183Y856172D01*
X966220Y856246D01*
X966275Y856348D01*
X966349Y856459D01*
X966442Y856598D01*
X966553Y856736D01*
X966682Y856894D01*
X966701Y856912D01*
X966747Y856967D01*
X966793Y857014D01*
X966840Y857060D01*
X966895Y857115D01*
X966969Y857189D01*
X967043Y857263D01*
X967135Y857347D01*
X967228Y857439D01*
X967339Y857541D01*
X967459Y857643D01*
X967588Y857763D01*
X967736Y857883D01*
X967884Y858012D01*
X967894Y858021D01*
X967912Y858040D01*
X967949Y858068D01*
X967995Y858105D01*
X968051Y858160D01*
X968115Y858216D01*
X968263Y858336D01*
X968420Y858475D01*
X968568Y858613D01*
X968698Y858733D01*
X968753Y858780D01*
X968800Y858826D01*
X968809Y858835D01*
X968837Y858863D01*
X968874Y858900D01*
X968920Y858955D01*
X968966Y859020D01*
X969022Y859085D01*
X969132Y859242D01*
X965980D01*
Y860000D01*
X970223D01*
Y859991D01*
D02*
G37*
G36*
X1217539Y776758D02*
X1212537D01*
X1212546Y776749D01*
X1212583Y776703D01*
X1212639Y776647D01*
X1212704Y776555D01*
X1212787Y776453D01*
X1212879Y776324D01*
X1212981Y776176D01*
X1213083Y776010D01*
Y776000D01*
X1213092Y775991D01*
X1213129Y775936D01*
X1213175Y775843D01*
X1213231Y775732D01*
X1213295Y775603D01*
X1213360Y775464D01*
X1213425Y775325D01*
X1213480Y775187D01*
X1212722D01*
Y775196D01*
X1212704Y775214D01*
X1212694Y775251D01*
X1212667Y775298D01*
X1212639Y775353D01*
X1212602Y775418D01*
X1212510Y775575D01*
X1212408Y775760D01*
X1212278Y775945D01*
X1212131Y776139D01*
X1211973Y776333D01*
X1211964Y776342D01*
X1211955Y776352D01*
X1211927Y776379D01*
X1211899Y776416D01*
X1211807Y776499D01*
X1211696Y776610D01*
X1211566Y776721D01*
X1211419Y776842D01*
X1211271Y776943D01*
X1211114Y777036D01*
Y777544D01*
X1217539D01*
Y776758D01*
D02*
G37*
G36*
X1215708Y773513D02*
X1215782D01*
X1215958Y773495D01*
X1216162Y773476D01*
X1216374Y773439D01*
X1216568Y773384D01*
X1216753Y773319D01*
X1216762D01*
X1216772Y773310D01*
X1216827Y773282D01*
X1216901Y773236D01*
X1217003Y773171D01*
X1217105Y773079D01*
X1217215Y772977D01*
X1217327Y772848D01*
X1217419Y772700D01*
X1217428Y772681D01*
X1217456Y772626D01*
X1217493Y772542D01*
X1217530Y772422D01*
X1217576Y772274D01*
X1217613Y772108D01*
X1217641Y771923D01*
X1217650Y771720D01*
Y771636D01*
X1217641Y771581D01*
X1217632Y771507D01*
X1217622Y771433D01*
X1217585Y771239D01*
X1217530Y771035D01*
X1217447Y770823D01*
X1217391Y770712D01*
X1217327Y770610D01*
X1217253Y770518D01*
X1217169Y770425D01*
X1217160Y770416D01*
X1217151Y770407D01*
X1217114Y770388D01*
X1217077Y770360D01*
X1217031Y770323D01*
X1216966Y770286D01*
X1216892Y770249D01*
X1216809Y770203D01*
X1216716Y770166D01*
X1216605Y770129D01*
X1216494Y770092D01*
X1216365Y770055D01*
X1216226Y770037D01*
X1216069Y770009D01*
X1215912Y770000D01*
X1215736D01*
X1215625Y770767D01*
X1215635D01*
X1215653D01*
X1215690D01*
X1215745Y770777D01*
X1215801Y770786D01*
X1215866D01*
X1216023Y770814D01*
X1216189Y770841D01*
X1216356Y770897D01*
X1216504Y770952D01*
X1216568Y770989D01*
X1216624Y771035D01*
X1216633Y771045D01*
X1216661Y771082D01*
X1216707Y771137D01*
X1216753Y771211D01*
X1216809Y771313D01*
X1216846Y771424D01*
X1216883Y771562D01*
X1216892Y771710D01*
Y771766D01*
X1216883Y771821D01*
X1216873Y771905D01*
X1216855Y771988D01*
X1216836Y772080D01*
X1216799Y772173D01*
X1216753Y772265D01*
X1216744Y772274D01*
X1216725Y772302D01*
X1216689Y772339D01*
X1216652Y772394D01*
X1216587Y772441D01*
X1216522Y772496D01*
X1216448Y772542D01*
X1216356Y772579D01*
X1216347D01*
X1216310Y772598D01*
X1216245Y772607D01*
X1216162Y772626D01*
X1216051Y772644D01*
X1215912Y772653D01*
X1215745Y772672D01*
X1215551D01*
X1211141D01*
Y773522D01*
X1215505D01*
X1215514D01*
X1215542D01*
X1215579D01*
X1215635D01*
X1215708Y773513D01*
D02*
G37*
G36*
X1101069Y621200D02*
X1097371D01*
X1097361D01*
X1097334D01*
X1097287D01*
X1097232D01*
X1097167Y621190D01*
X1097084D01*
X1096908Y621181D01*
X1096705Y621163D01*
X1096501Y621135D01*
X1096307Y621098D01*
X1096224Y621079D01*
X1096141Y621052D01*
X1096122Y621042D01*
X1096076Y621024D01*
X1096011Y620978D01*
X1095919Y620922D01*
X1095826Y620858D01*
X1095725Y620765D01*
X1095623Y620654D01*
X1095540Y620525D01*
X1095531Y620506D01*
X1095503Y620460D01*
X1095475Y620377D01*
X1095438Y620266D01*
X1095392Y620136D01*
X1095364Y619970D01*
X1095337Y619794D01*
X1095327Y619600D01*
Y619508D01*
X1095337Y619452D01*
Y619369D01*
X1095346Y619286D01*
X1095383Y619082D01*
X1095429Y618860D01*
X1095503Y618648D01*
X1095605Y618444D01*
X1095669Y618352D01*
X1095743Y618269D01*
X1095752Y618260D01*
X1095762Y618250D01*
X1095789Y618232D01*
X1095826Y618204D01*
X1095882Y618176D01*
X1095938Y618139D01*
X1096021Y618102D01*
X1096104Y618065D01*
X1096206Y618028D01*
X1096326Y618001D01*
X1096464Y617964D01*
X1096612Y617936D01*
X1096779Y617908D01*
X1096954Y617890D01*
X1097158Y617871D01*
X1097371D01*
X1101069D01*
Y617021D01*
X1097371D01*
X1097361D01*
X1097324D01*
X1097278D01*
X1097213D01*
X1097130Y617030D01*
X1097038D01*
X1096927Y617039D01*
X1096816Y617048D01*
X1096566Y617076D01*
X1096307Y617113D01*
X1096058Y617169D01*
X1095938Y617206D01*
X1095826Y617243D01*
X1095817D01*
X1095799Y617252D01*
X1095771Y617270D01*
X1095734Y617289D01*
X1095632Y617344D01*
X1095503Y617427D01*
X1095355Y617538D01*
X1095207Y617668D01*
X1095050Y617834D01*
X1094911Y618038D01*
Y618047D01*
X1094893Y618065D01*
X1094883Y618093D01*
X1094856Y618139D01*
X1094828Y618195D01*
X1094800Y618269D01*
X1094772Y618343D01*
X1094735Y618435D01*
X1094698Y618537D01*
X1094671Y618648D01*
X1094643Y618768D01*
X1094615Y618907D01*
X1094597Y619045D01*
X1094578Y619193D01*
X1094560Y619526D01*
Y619609D01*
X1094569Y619674D01*
Y619748D01*
X1094578Y619841D01*
X1094588Y619942D01*
X1094597Y620044D01*
X1094634Y620275D01*
X1094689Y620525D01*
X1094763Y620765D01*
X1094865Y620996D01*
Y621005D01*
X1094883Y621024D01*
X1094902Y621052D01*
X1094920Y621089D01*
X1094994Y621190D01*
X1095096Y621311D01*
X1095226Y621449D01*
X1095374Y621579D01*
X1095558Y621708D01*
X1095762Y621810D01*
X1095771D01*
X1095789Y621819D01*
X1095826Y621828D01*
X1095873Y621847D01*
X1095928Y621865D01*
X1096002Y621884D01*
X1096085Y621912D01*
X1096187Y621930D01*
X1096298Y621949D01*
X1096418Y621976D01*
X1096548Y621995D01*
X1096686Y622013D01*
X1096843Y622032D01*
X1097010Y622041D01*
X1097186Y622050D01*
X1097371D01*
X1101069D01*
Y621200D01*
D02*
G37*
G36*
X1099488Y615319D02*
X1099506Y615301D01*
X1099516Y615264D01*
X1099543Y615218D01*
X1099571Y615162D01*
X1099608Y615098D01*
X1099700Y614940D01*
X1099802Y614755D01*
X1099932Y614571D01*
X1100079Y614376D01*
X1100237Y614182D01*
X1100246Y614173D01*
X1100255Y614164D01*
X1100283Y614136D01*
X1100311Y614099D01*
X1100403Y614016D01*
X1100514Y613905D01*
X1100643Y613794D01*
X1100791Y613674D01*
X1100939Y613572D01*
X1101096Y613479D01*
Y612971D01*
X1094671D01*
Y613757D01*
X1099673D01*
X1099663Y613766D01*
X1099626Y613812D01*
X1099571Y613868D01*
X1099506Y613960D01*
X1099423Y614062D01*
X1099331Y614191D01*
X1099229Y614339D01*
X1099127Y614506D01*
Y614515D01*
X1099118Y614524D01*
X1099081Y614580D01*
X1099035Y614672D01*
X1098979Y614783D01*
X1098914Y614913D01*
X1098850Y615051D01*
X1098785Y615190D01*
X1098730Y615329D01*
X1099488D01*
Y615319D01*
D02*
G37*
G36*
X811569Y698959D02*
Y696250D01*
X810718D01*
Y698959D01*
X808250Y702648D01*
X809276D01*
X810534Y700706D01*
Y700697D01*
X810552Y700678D01*
X810571Y700651D01*
X810589Y700614D01*
X810626Y700568D01*
X810663Y700512D01*
X810746Y700373D01*
X810848Y700207D01*
X810959Y700022D01*
X811079Y699828D01*
X811190Y699624D01*
Y699634D01*
X811199Y699652D01*
X811218Y699680D01*
X811245Y699717D01*
X811273Y699763D01*
X811310Y699819D01*
X811393Y699957D01*
X811495Y700124D01*
X811615Y700318D01*
X811754Y700531D01*
X811902Y700762D01*
X813131Y702648D01*
X814121D01*
X811569Y698959D01*
D02*
G37*
G36*
X817523Y696250D02*
X816737D01*
Y701252D01*
X816728Y701243D01*
X816682Y701206D01*
X816626Y701150D01*
X816534Y701085D01*
X816432Y701002D01*
X816303Y700910D01*
X816155Y700808D01*
X815988Y700706D01*
X815979D01*
X815970Y700697D01*
X815915Y700660D01*
X815822Y700614D01*
X815711Y700558D01*
X815582Y700494D01*
X815443Y700429D01*
X815304Y700364D01*
X815166Y700309D01*
Y701067D01*
X815175D01*
X815193Y701085D01*
X815230Y701095D01*
X815276Y701122D01*
X815332Y701150D01*
X815397Y701187D01*
X815554Y701280D01*
X815739Y701381D01*
X815924Y701511D01*
X816118Y701658D01*
X816312Y701816D01*
X816321Y701825D01*
X816330Y701834D01*
X816358Y701862D01*
X816395Y701890D01*
X816479Y701982D01*
X816589Y702093D01*
X816700Y702223D01*
X816821Y702371D01*
X816922Y702518D01*
X817015Y702676D01*
X817523D01*
Y696250D01*
D02*
G37*
G36*
X1103826Y885677D02*
X1101265D01*
X1100923Y883948D01*
X1100932Y883957D01*
X1100951Y883966D01*
X1100978Y883985D01*
X1101025Y884013D01*
X1101080Y884040D01*
X1101145Y884077D01*
X1101293Y884151D01*
X1101478Y884225D01*
X1101681Y884290D01*
X1101903Y884336D01*
X1102014Y884355D01*
X1102217D01*
X1102273Y884345D01*
X1102347Y884336D01*
X1102430Y884327D01*
X1102523Y884308D01*
X1102624Y884281D01*
X1102846Y884216D01*
X1102966Y884170D01*
X1103086Y884105D01*
X1103207Y884040D01*
X1103327Y883966D01*
X1103438Y883874D01*
X1103549Y883772D01*
X1103558Y883763D01*
X1103577Y883744D01*
X1103604Y883717D01*
X1103641Y883670D01*
X1103688Y883606D01*
X1103734Y883541D01*
X1103789Y883458D01*
X1103845Y883365D01*
X1103891Y883264D01*
X1103946Y883153D01*
X1103993Y883023D01*
X1104039Y882894D01*
X1104076Y882755D01*
X1104103Y882598D01*
X1104122Y882441D01*
X1104131Y882274D01*
Y882265D01*
Y882237D01*
Y882191D01*
X1104122Y882126D01*
X1104113Y882052D01*
X1104103Y881969D01*
X1104085Y881868D01*
X1104066Y881766D01*
X1104011Y881525D01*
X1103919Y881276D01*
X1103863Y881146D01*
X1103789Y881026D01*
X1103715Y880897D01*
X1103623Y880777D01*
X1103614Y880767D01*
X1103595Y880740D01*
X1103558Y880703D01*
X1103512Y880656D01*
X1103447Y880601D01*
X1103373Y880527D01*
X1103281Y880462D01*
X1103179Y880388D01*
X1103068Y880314D01*
X1102939Y880249D01*
X1102800Y880185D01*
X1102652Y880120D01*
X1102495Y880074D01*
X1102319Y880037D01*
X1102134Y880009D01*
X1101940Y880000D01*
X1101857D01*
X1101792Y880009D01*
X1101718Y880018D01*
X1101635Y880028D01*
X1101533Y880037D01*
X1101432Y880065D01*
X1101200Y880120D01*
X1100969Y880203D01*
X1100849Y880259D01*
X1100729Y880323D01*
X1100618Y880397D01*
X1100507Y880481D01*
X1100498Y880490D01*
X1100479Y880499D01*
X1100461Y880536D01*
X1100424Y880573D01*
X1100378Y880619D01*
X1100331Y880675D01*
X1100276Y880749D01*
X1100230Y880832D01*
X1100174Y880915D01*
X1100119Y881017D01*
X1100017Y881239D01*
X1099934Y881498D01*
X1099906Y881636D01*
X1099887Y881784D01*
X1100710Y881849D01*
Y881840D01*
Y881821D01*
X1100720Y881794D01*
X1100729Y881747D01*
X1100757Y881646D01*
X1100794Y881507D01*
X1100849Y881368D01*
X1100923Y881211D01*
X1101015Y881072D01*
X1101126Y880943D01*
X1101145Y880934D01*
X1101182Y880897D01*
X1101256Y880851D01*
X1101358Y880795D01*
X1101469Y880740D01*
X1101607Y880693D01*
X1101764Y880656D01*
X1101940Y880647D01*
X1101995D01*
X1102032Y880656D01*
X1102143Y880666D01*
X1102273Y880703D01*
X1102430Y880749D01*
X1102587Y880823D01*
X1102754Y880934D01*
X1102828Y880998D01*
X1102902Y881072D01*
X1102911Y881082D01*
X1102920Y881091D01*
X1102939Y881119D01*
X1102966Y881146D01*
X1103031Y881248D01*
X1103105Y881377D01*
X1103170Y881535D01*
X1103234Y881729D01*
X1103281Y881960D01*
X1103299Y882080D01*
Y882210D01*
Y882219D01*
Y882237D01*
Y882274D01*
X1103290Y882320D01*
Y882376D01*
X1103281Y882441D01*
X1103253Y882589D01*
X1103207Y882764D01*
X1103142Y882940D01*
X1103049Y883106D01*
X1102920Y883264D01*
Y883273D01*
X1102902Y883282D01*
X1102855Y883328D01*
X1102772Y883393D01*
X1102661Y883467D01*
X1102513Y883532D01*
X1102347Y883596D01*
X1102153Y883643D01*
X1102042Y883661D01*
X1101866D01*
X1101792Y883652D01*
X1101700Y883643D01*
X1101589Y883615D01*
X1101478Y883587D01*
X1101358Y883541D01*
X1101237Y883485D01*
X1101228Y883476D01*
X1101191Y883458D01*
X1101136Y883411D01*
X1101062Y883365D01*
X1100988Y883301D01*
X1100914Y883217D01*
X1100831Y883134D01*
X1100766Y883032D01*
X1100026Y883134D01*
X1100646Y886426D01*
X1103826D01*
Y885677D01*
D02*
G37*
G36*
X1096809Y886499D02*
X1096892D01*
X1097086Y886490D01*
X1097290Y886463D01*
X1097511Y886435D01*
X1097715Y886389D01*
X1097816Y886361D01*
X1097900Y886333D01*
X1097909D01*
X1097918Y886324D01*
X1097974Y886296D01*
X1098057Y886259D01*
X1098159Y886194D01*
X1098270Y886111D01*
X1098390Y886000D01*
X1098501Y885871D01*
X1098612Y885723D01*
Y885714D01*
X1098621Y885704D01*
X1098658Y885649D01*
X1098695Y885556D01*
X1098750Y885436D01*
X1098796Y885298D01*
X1098843Y885131D01*
X1098870Y884956D01*
X1098880Y884761D01*
Y884752D01*
Y884734D01*
Y884697D01*
X1098870Y884650D01*
Y884586D01*
X1098861Y884521D01*
X1098824Y884364D01*
X1098769Y884179D01*
X1098695Y883985D01*
X1098584Y883791D01*
X1098510Y883698D01*
X1098436Y883606D01*
X1098427Y883596D01*
X1098418Y883587D01*
X1098390Y883559D01*
X1098353Y883532D01*
X1098307Y883495D01*
X1098251Y883458D01*
X1098177Y883411D01*
X1098103Y883356D01*
X1098011Y883310D01*
X1097909Y883264D01*
X1097798Y883208D01*
X1097678Y883162D01*
X1097539Y883125D01*
X1097400Y883079D01*
X1097243Y883051D01*
X1097077Y883023D01*
X1097095Y883014D01*
X1097132Y882996D01*
X1097188Y882959D01*
X1097262Y882922D01*
X1097428Y882820D01*
X1097511Y882755D01*
X1097585Y882700D01*
X1097604Y882681D01*
X1097650Y882635D01*
X1097724Y882561D01*
X1097816Y882468D01*
X1097918Y882339D01*
X1098038Y882200D01*
X1098159Y882034D01*
X1098288Y881849D01*
X1099388Y880111D01*
X1098334D01*
X1097493Y881442D01*
Y881451D01*
X1097474Y881470D01*
X1097456Y881498D01*
X1097428Y881535D01*
X1097364Y881636D01*
X1097280Y881766D01*
X1097179Y881905D01*
X1097077Y882052D01*
X1096975Y882191D01*
X1096883Y882320D01*
X1096873Y882330D01*
X1096846Y882367D01*
X1096799Y882422D01*
X1096735Y882487D01*
X1096596Y882626D01*
X1096522Y882690D01*
X1096448Y882746D01*
X1096439Y882755D01*
X1096420Y882764D01*
X1096383Y882783D01*
X1096328Y882811D01*
X1096273Y882838D01*
X1096208Y882866D01*
X1096060Y882912D01*
X1096051D01*
X1096032Y882922D01*
X1095995D01*
X1095949Y882931D01*
X1095884Y882940D01*
X1095810D01*
X1095708Y882949D01*
X1094617D01*
Y880111D01*
X1093767D01*
Y886509D01*
X1096735D01*
X1096809Y886499D01*
D02*
G37*
G36*
X882975Y740309D02*
X883031D01*
X883179Y740281D01*
X883354Y740253D01*
X883539Y740207D01*
X883743Y740142D01*
X883937Y740050D01*
X883946D01*
X883955Y740041D01*
X883983Y740022D01*
X884020Y740004D01*
X884112Y739948D01*
X884233Y739865D01*
X884362Y739763D01*
X884492Y739643D01*
X884621Y739495D01*
X884732Y739338D01*
Y739329D01*
X884741Y739319D01*
X884760Y739292D01*
X884769Y739255D01*
X884815Y739162D01*
X884861Y739042D01*
X884917Y738885D01*
X884954Y738709D01*
X884991Y738515D01*
X885000Y738302D01*
Y738256D01*
X884991Y738210D01*
Y738136D01*
X884982Y738053D01*
X884963Y737960D01*
X884935Y737849D01*
X884908Y737738D01*
X884871Y737609D01*
X884824Y737479D01*
X884769Y737350D01*
X884695Y737211D01*
X884612Y737082D01*
X884519Y736953D01*
X884408Y736823D01*
X884279Y736703D01*
X884270Y736694D01*
X884242Y736675D01*
X884205Y736647D01*
X884140Y736610D01*
X884057Y736555D01*
X883965Y736509D01*
X883844Y736453D01*
X883715Y736398D01*
X883558Y736333D01*
X883382Y736278D01*
X883188Y736231D01*
X882975Y736185D01*
X882735Y736139D01*
X882476Y736111D01*
X882199Y736093D01*
X881903Y736083D01*
X881894D01*
X881884D01*
X881857D01*
X881820D01*
X881727Y736093D01*
X881598D01*
X881450Y736102D01*
X881274Y736120D01*
X881080Y736139D01*
X880867Y736167D01*
X880655Y736204D01*
X880424Y736250D01*
X880202Y736305D01*
X879980Y736370D01*
X879767Y736453D01*
X879564Y736546D01*
X879370Y736647D01*
X879203Y736768D01*
X879194Y736777D01*
X879175Y736795D01*
X879138Y736832D01*
X879083Y736879D01*
X879027Y736934D01*
X878972Y737008D01*
X878898Y737101D01*
X878833Y737193D01*
X878769Y737304D01*
X878695Y737424D01*
X878639Y737563D01*
X878574Y737701D01*
X878528Y737859D01*
X878491Y738025D01*
X878473Y738201D01*
X878464Y738386D01*
Y738460D01*
X878473Y738515D01*
Y738580D01*
X878482Y738654D01*
X878519Y738829D01*
X878565Y739024D01*
X878639Y739227D01*
X878750Y739430D01*
X878815Y739532D01*
X878889Y739624D01*
X878898Y739634D01*
X878907Y739643D01*
X878935Y739671D01*
X878963Y739698D01*
X879009Y739745D01*
X879064Y739782D01*
X879194Y739883D01*
X879360Y739985D01*
X879564Y740078D01*
X879795Y740161D01*
X880054Y740216D01*
X880118Y739430D01*
X880109D01*
X880100Y739421D01*
X880044Y739412D01*
X879961Y739384D01*
X879860Y739347D01*
X879749Y739310D01*
X879638Y739255D01*
X879536Y739190D01*
X879453Y739125D01*
X879434Y739107D01*
X879397Y739070D01*
X879342Y739005D01*
X879277Y738913D01*
X879222Y738792D01*
X879166Y738663D01*
X879129Y738506D01*
X879111Y738339D01*
Y738275D01*
X879120Y738201D01*
X879138Y738118D01*
X879166Y738007D01*
X879203Y737896D01*
X879249Y737785D01*
X879323Y737674D01*
X879333Y737655D01*
X879370Y737609D01*
X879434Y737544D01*
X879527Y737461D01*
X879638Y737369D01*
X879767Y737267D01*
X879933Y737174D01*
X880118Y737082D01*
X880128D01*
X880146Y737073D01*
X880174Y737064D01*
X880211Y737045D01*
X880266Y737036D01*
X880331Y737017D01*
X880405Y736999D01*
X880498Y736980D01*
X880599Y736953D01*
X880710Y736934D01*
X880830Y736916D01*
X880960Y736906D01*
X881108Y736888D01*
X881256Y736879D01*
X881422Y736869D01*
X881589D01*
X881579Y736879D01*
X881524Y736916D01*
X881450Y736980D01*
X881357Y737064D01*
X881246Y737156D01*
X881145Y737276D01*
X881043Y737406D01*
X880950Y737553D01*
Y737563D01*
X880941Y737572D01*
X880914Y737627D01*
X880886Y737711D01*
X880840Y737822D01*
X880803Y737951D01*
X880775Y738099D01*
X880747Y738256D01*
X880738Y738423D01*
Y738496D01*
X880747Y738552D01*
X880756Y738626D01*
X880766Y738700D01*
X880784Y738792D01*
X880812Y738885D01*
X880877Y739098D01*
X880923Y739209D01*
X880987Y739319D01*
X881052Y739430D01*
X881126Y739550D01*
X881219Y739661D01*
X881320Y739763D01*
X881330Y739772D01*
X881348Y739791D01*
X881376Y739819D01*
X881422Y739846D01*
X881487Y739893D01*
X881552Y739939D01*
X881635Y739985D01*
X881727Y740041D01*
X881829Y740096D01*
X881940Y740142D01*
X882069Y740189D01*
X882199Y740235D01*
X882337Y740263D01*
X882495Y740290D01*
X882652Y740309D01*
X882818Y740318D01*
X882827D01*
X882846D01*
X882874D01*
X882920D01*
X882975Y740309D01*
D02*
G37*
G36*
X884889Y734567D02*
X883558Y733726D01*
X883549D01*
X883530Y733707D01*
X883502Y733689D01*
X883465Y733661D01*
X883364Y733596D01*
X883234Y733513D01*
X883095Y733411D01*
X882948Y733310D01*
X882809Y733208D01*
X882680Y733116D01*
X882670Y733106D01*
X882633Y733079D01*
X882578Y733032D01*
X882513Y732968D01*
X882374Y732829D01*
X882310Y732755D01*
X882254Y732681D01*
X882245Y732672D01*
X882236Y732653D01*
X882217Y732616D01*
X882189Y732561D01*
X882162Y732505D01*
X882134Y732441D01*
X882088Y732293D01*
Y732283D01*
X882078Y732265D01*
Y732228D01*
X882069Y732182D01*
X882060Y732117D01*
Y732043D01*
X882051Y731941D01*
Y730850D01*
X884889D01*
Y730000D01*
X878491D01*
Y732968D01*
X878501Y733042D01*
Y733125D01*
X878510Y733319D01*
X878537Y733522D01*
X878565Y733744D01*
X878611Y733948D01*
X878639Y734049D01*
X878667Y734133D01*
Y734142D01*
X878676Y734151D01*
X878704Y734207D01*
X878741Y734290D01*
X878806Y734391D01*
X878889Y734502D01*
X879000Y734623D01*
X879129Y734734D01*
X879277Y734845D01*
X879286D01*
X879296Y734854D01*
X879351Y734891D01*
X879444Y734928D01*
X879564Y734983D01*
X879702Y735029D01*
X879869Y735076D01*
X880044Y735103D01*
X880239Y735113D01*
X880248D01*
X880266D01*
X880303D01*
X880350Y735103D01*
X880414D01*
X880479Y735094D01*
X880636Y735057D01*
X880821Y735002D01*
X881015Y734928D01*
X881209Y734817D01*
X881302Y734743D01*
X881394Y734669D01*
X881404Y734660D01*
X881413Y734650D01*
X881441Y734623D01*
X881468Y734586D01*
X881505Y734539D01*
X881542Y734484D01*
X881589Y734410D01*
X881644Y734336D01*
X881690Y734244D01*
X881736Y734142D01*
X881792Y734031D01*
X881838Y733911D01*
X881875Y733772D01*
X881921Y733633D01*
X881949Y733476D01*
X881977Y733310D01*
X881986Y733328D01*
X882004Y733365D01*
X882041Y733421D01*
X882078Y733495D01*
X882180Y733661D01*
X882245Y733744D01*
X882300Y733818D01*
X882319Y733837D01*
X882365Y733883D01*
X882439Y733957D01*
X882532Y734049D01*
X882661Y734151D01*
X882800Y734271D01*
X882966Y734391D01*
X883151Y734521D01*
X884889Y735621D01*
Y734567D01*
D02*
G37*
G36*
X986398Y813265D02*
X986389Y813191D01*
Y813108D01*
X986379Y812914D01*
X986352Y812710D01*
X986324Y812489D01*
X986278Y812285D01*
X986250Y812184D01*
X986222Y812100D01*
Y812091D01*
X986213Y812082D01*
X986185Y812026D01*
X986148Y811943D01*
X986084Y811841D01*
X986000Y811730D01*
X985889Y811610D01*
X985760Y811499D01*
X985612Y811388D01*
X985603D01*
X985593Y811379D01*
X985538Y811342D01*
X985445Y811305D01*
X985325Y811250D01*
X985187Y811204D01*
X985020Y811157D01*
X984845Y811130D01*
X984650Y811120D01*
X984641D01*
X984623D01*
X984586D01*
X984539Y811130D01*
X984475D01*
X984410Y811139D01*
X984253Y811176D01*
X984068Y811231D01*
X983874Y811305D01*
X983680Y811416D01*
X983587Y811490D01*
X983495Y811564D01*
X983485Y811573D01*
X983476Y811582D01*
X983448Y811610D01*
X983421Y811647D01*
X983384Y811693D01*
X983347Y811749D01*
X983300Y811823D01*
X983245Y811897D01*
X983199Y811989D01*
X983153Y812091D01*
X983097Y812202D01*
X983051Y812322D01*
X983014Y812461D01*
X982968Y812599D01*
X982940Y812757D01*
X982912Y812923D01*
X982903Y812905D01*
X982885Y812868D01*
X982848Y812812D01*
X982811Y812738D01*
X982709Y812572D01*
X982644Y812489D01*
X982589Y812415D01*
X982570Y812396D01*
X982524Y812350D01*
X982450Y812276D01*
X982357Y812184D01*
X982228Y812082D01*
X982089Y811962D01*
X981923Y811841D01*
X981738Y811712D01*
X980000Y810612D01*
Y811666D01*
X981331Y812507D01*
X981340D01*
X981359Y812526D01*
X981387Y812544D01*
X981424Y812572D01*
X981525Y812636D01*
X981655Y812720D01*
X981794Y812821D01*
X981941Y812923D01*
X982080Y813025D01*
X982210Y813117D01*
X982219Y813127D01*
X982256Y813154D01*
X982311Y813201D01*
X982376Y813265D01*
X982515Y813404D01*
X982579Y813478D01*
X982635Y813552D01*
X982644Y813561D01*
X982653Y813580D01*
X982672Y813617D01*
X982700Y813672D01*
X982727Y813727D01*
X982755Y813792D01*
X982801Y813940D01*
Y813949D01*
X982811Y813968D01*
Y814005D01*
X982820Y814051D01*
X982829Y814116D01*
Y814190D01*
X982838Y814292D01*
Y815383D01*
X980000D01*
Y816233D01*
X986398D01*
Y813265D01*
D02*
G37*
G36*
X986315Y805915D02*
X985695D01*
X985686Y805924D01*
X985667Y805943D01*
X985630Y805980D01*
X985575Y806017D01*
X985510Y806072D01*
X985436Y806146D01*
X985344Y806220D01*
X985233Y806303D01*
X985122Y806386D01*
X984993Y806488D01*
X984845Y806590D01*
X984697Y806692D01*
X984530Y806803D01*
X984354Y806914D01*
X984160Y807024D01*
X983966Y807135D01*
X983957Y807145D01*
X983920Y807163D01*
X983865Y807191D01*
X983781Y807237D01*
X983680Y807283D01*
X983569Y807339D01*
X983439Y807403D01*
X983291Y807468D01*
X983125Y807542D01*
X982959Y807625D01*
X982774Y807699D01*
X982579Y807773D01*
X982182Y807921D01*
X981757Y808060D01*
X981747D01*
X981720Y808069D01*
X981673Y808078D01*
X981618Y808097D01*
X981544Y808115D01*
X981451Y808134D01*
X981350Y808162D01*
X981239Y808180D01*
X981109Y808208D01*
X980971Y808236D01*
X980675Y808282D01*
X980351Y808328D01*
X980000Y808356D01*
Y809160D01*
X980009D01*
X980037D01*
X980074D01*
X980129Y809151D01*
X980203D01*
X980296Y809142D01*
X980397Y809132D01*
X980508Y809123D01*
X980638Y809105D01*
X980767Y809086D01*
X980924Y809059D01*
X981082Y809031D01*
X981248Y809003D01*
X981433Y808966D01*
X981812Y808874D01*
X981821D01*
X981858Y808864D01*
X981914Y808846D01*
X981997Y808818D01*
X982089Y808790D01*
X982200Y808753D01*
X982330Y808716D01*
X982468Y808661D01*
X982626Y808605D01*
X982783Y808550D01*
X983134Y808411D01*
X983504Y808245D01*
X983874Y808060D01*
X983883Y808051D01*
X983920Y808032D01*
X983966Y808005D01*
X984040Y807968D01*
X984123Y807921D01*
X984225Y807857D01*
X984336Y807792D01*
X984456Y807718D01*
X984724Y807542D01*
X985002Y807357D01*
X985288Y807145D01*
X985556Y806923D01*
Y810057D01*
X986315D01*
Y805915D01*
D02*
G37*
%LPC*%
G36*
X1185359Y628011D02*
X1185350D01*
X1185340D01*
X1185285Y628001D01*
X1185202Y627992D01*
X1185091Y627974D01*
X1184980Y627928D01*
X1184850Y627872D01*
X1184730Y627789D01*
X1184610Y627678D01*
X1184601Y627659D01*
X1184564Y627613D01*
X1184517Y627539D01*
X1184462Y627419D01*
X1184407Y627280D01*
X1184360Y627095D01*
X1184323Y626883D01*
X1184314Y626633D01*
Y624618D01*
X1186431D01*
Y626522D01*
X1186422Y626633D01*
X1186413Y626763D01*
X1186404Y626911D01*
X1186385Y627058D01*
X1186357Y627206D01*
X1186320Y627336D01*
X1186311Y627354D01*
X1186293Y627391D01*
X1186265Y627447D01*
X1186228Y627521D01*
X1186172Y627604D01*
X1186108Y627687D01*
X1186024Y627770D01*
X1185932Y627835D01*
X1185923Y627844D01*
X1185886Y627863D01*
X1185830Y627891D01*
X1185756Y627928D01*
X1185673Y627955D01*
X1185581Y627983D01*
X1185470Y628001D01*
X1185359Y628011D01*
D02*
G37*
G36*
X937866Y865797D02*
X935851D01*
Y863680D01*
X937755D01*
X937866Y863689D01*
X937996Y863698D01*
X938143Y863707D01*
X938291Y863726D01*
X938439Y863754D01*
X938569Y863791D01*
X938587Y863800D01*
X938624Y863818D01*
X938680Y863846D01*
X938754Y863883D01*
X938837Y863939D01*
X938920Y864003D01*
X939003Y864086D01*
X939068Y864179D01*
X939077Y864188D01*
X939096Y864225D01*
X939123Y864281D01*
X939160Y864355D01*
X939188Y864438D01*
X939216Y864530D01*
X939234Y864641D01*
X939244Y864752D01*
Y864761D01*
Y864771D01*
X939234Y864826D01*
X939225Y864909D01*
X939207Y865020D01*
X939160Y865131D01*
X939105Y865261D01*
X939022Y865381D01*
X938911Y865501D01*
X938892Y865510D01*
X938846Y865547D01*
X938772Y865593D01*
X938652Y865649D01*
X938513Y865704D01*
X938328Y865751D01*
X938116Y865788D01*
X937866Y865797D01*
D02*
G37*
G36*
X975382Y856431D02*
X973478D01*
X973367Y856422D01*
X973237Y856413D01*
X973090Y856404D01*
X972942Y856385D01*
X972794Y856357D01*
X972664Y856320D01*
X972646Y856311D01*
X972609Y856293D01*
X972553Y856265D01*
X972479Y856228D01*
X972396Y856172D01*
X972313Y856108D01*
X972230Y856024D01*
X972165Y855932D01*
X972156Y855923D01*
X972137Y855886D01*
X972110Y855830D01*
X972073Y855756D01*
X972045Y855673D01*
X972017Y855581D01*
X971999Y855470D01*
X971989Y855359D01*
Y855350D01*
Y855340D01*
X971999Y855285D01*
X972008Y855202D01*
X972026Y855091D01*
X972073Y854980D01*
X972128Y854850D01*
X972211Y854730D01*
X972322Y854610D01*
X972341Y854601D01*
X972387Y854564D01*
X972461Y854517D01*
X972581Y854462D01*
X972720Y854407D01*
X972905Y854360D01*
X973117Y854323D01*
X973367Y854314D01*
X975382D01*
Y856431D01*
D02*
G37*
G36*
X1096633Y885797D02*
X1094617D01*
Y883680D01*
X1096522D01*
X1096633Y883689D01*
X1096762Y883698D01*
X1096910Y883707D01*
X1097058Y883726D01*
X1097206Y883754D01*
X1097336Y883791D01*
X1097354Y883800D01*
X1097391Y883818D01*
X1097447Y883846D01*
X1097521Y883883D01*
X1097604Y883939D01*
X1097687Y884003D01*
X1097770Y884086D01*
X1097835Y884179D01*
X1097844Y884188D01*
X1097863Y884225D01*
X1097890Y884281D01*
X1097927Y884355D01*
X1097955Y884438D01*
X1097983Y884530D01*
X1098001Y884641D01*
X1098011Y884752D01*
Y884761D01*
Y884771D01*
X1098001Y884826D01*
X1097992Y884909D01*
X1097974Y885020D01*
X1097927Y885131D01*
X1097872Y885261D01*
X1097789Y885381D01*
X1097678Y885501D01*
X1097659Y885510D01*
X1097613Y885547D01*
X1097539Y885593D01*
X1097419Y885649D01*
X1097280Y885704D01*
X1097095Y885751D01*
X1096883Y885788D01*
X1096633Y885797D01*
D02*
G37*
G36*
X882864Y739514D02*
X882855D01*
X882837D01*
X882800D01*
X882753Y739504D01*
X882698D01*
X882633Y739495D01*
X882485Y739467D01*
X882319Y739430D01*
X882143Y739366D01*
X881977Y739273D01*
X881820Y739153D01*
X881801Y739135D01*
X881755Y739088D01*
X881699Y739014D01*
X881626Y738913D01*
X881552Y738783D01*
X881496Y738635D01*
X881450Y738460D01*
X881431Y738265D01*
Y738210D01*
X881441Y738173D01*
X881450Y738081D01*
X881478Y737951D01*
X881524Y737812D01*
X881598Y737655D01*
X881690Y737507D01*
X881820Y737359D01*
X881838Y737341D01*
X881884Y737304D01*
X881968Y737239D01*
X882088Y737174D01*
X882226Y737110D01*
X882402Y737045D01*
X882596Y737008D01*
X882818Y736990D01*
X882837D01*
X882883D01*
X882966Y736999D01*
X883068Y737008D01*
X883188Y737027D01*
X883317Y737064D01*
X883456Y737101D01*
X883595Y737156D01*
X883613Y737165D01*
X883660Y737193D01*
X883724Y737230D01*
X883807Y737285D01*
X883891Y737350D01*
X883992Y737433D01*
X884075Y737526D01*
X884159Y737637D01*
X884168Y737655D01*
X884186Y737692D01*
X884223Y737757D01*
X884251Y737840D01*
X884288Y737933D01*
X884325Y738044D01*
X884344Y738164D01*
X884353Y738293D01*
Y738339D01*
X884344Y738376D01*
X884334Y738469D01*
X884307Y738589D01*
X884251Y738718D01*
X884186Y738866D01*
X884085Y739014D01*
X884029Y739088D01*
X883955Y739153D01*
X883946D01*
X883937Y739172D01*
X883881Y739209D01*
X883789Y739264D01*
X883669Y739338D01*
X883512Y739403D01*
X883327Y739458D01*
X883114Y739495D01*
X882864Y739514D01*
D02*
G37*
G36*
X880248Y734244D02*
X880239D01*
X880229D01*
X880174Y734234D01*
X880091Y734225D01*
X879980Y734207D01*
X879869Y734160D01*
X879739Y734105D01*
X879619Y734022D01*
X879499Y733911D01*
X879490Y733892D01*
X879453Y733846D01*
X879407Y733772D01*
X879351Y733652D01*
X879296Y733513D01*
X879249Y733328D01*
X879212Y733116D01*
X879203Y732866D01*
Y730850D01*
X881320D01*
Y732755D01*
X881311Y732866D01*
X881302Y732995D01*
X881293Y733143D01*
X881274Y733291D01*
X881246Y733439D01*
X881209Y733569D01*
X881200Y733587D01*
X881182Y733624D01*
X881154Y733680D01*
X881117Y733754D01*
X881061Y733837D01*
X880997Y733920D01*
X880914Y734003D01*
X880821Y734068D01*
X880812Y734077D01*
X880775Y734096D01*
X880719Y734123D01*
X880645Y734160D01*
X880562Y734188D01*
X880470Y734216D01*
X880359Y734234D01*
X880248Y734244D01*
D02*
G37*
G36*
X985686Y815383D02*
X983569D01*
Y813478D01*
X983578Y813367D01*
X983587Y813238D01*
X983596Y813090D01*
X983615Y812942D01*
X983643Y812794D01*
X983680Y812664D01*
X983689Y812646D01*
X983707Y812609D01*
X983735Y812553D01*
X983772Y812479D01*
X983828Y812396D01*
X983892Y812313D01*
X983976Y812230D01*
X984068Y812165D01*
X984077Y812156D01*
X984114Y812137D01*
X984170Y812110D01*
X984244Y812073D01*
X984327Y812045D01*
X984419Y812017D01*
X984530Y811999D01*
X984641Y811989D01*
X984650D01*
X984660D01*
X984715Y811999D01*
X984798Y812008D01*
X984909Y812026D01*
X985020Y812073D01*
X985150Y812128D01*
X985270Y812211D01*
X985390Y812322D01*
X985399Y812341D01*
X985436Y812387D01*
X985482Y812461D01*
X985538Y812581D01*
X985593Y812720D01*
X985640Y812905D01*
X985677Y813117D01*
X985686Y813367D01*
Y815383D01*
D02*
G37*
%LPD*%
D12*
X1179939Y604706D02*
X1200061D01*
Y642828D01*
X1179939D02*
X1200061D01*
X1179939Y604706D02*
Y642828D01*
X915939Y849939D02*
Y870061D01*
Y849939D02*
X954061D01*
Y870061D01*
X915939D02*
X954061D01*
X995294Y849939D02*
Y870061D01*
X957172D02*
X995294D01*
X957172Y849939D02*
Y870061D01*
Y849939D02*
X995294D01*
X1188000Y727000D02*
X1247300D01*
Y813000D01*
X1188000D02*
X1247300D01*
X1188000Y727000D02*
Y813000D01*
X1061035Y661021D02*
X1128085D01*
X1061035Y583079D02*
Y661021D01*
Y583079D02*
X1128085D01*
Y661021D01*
X793500Y684000D02*
Y708500D01*
Y684000D02*
X823000D01*
Y708500D01*
X793500D02*
X823000D01*
X1074706Y869939D02*
Y890061D01*
Y869939D02*
X1112828D01*
Y890061D01*
X1074706D02*
X1112828D01*
X874939Y710939D02*
X895061D01*
Y749061D01*
X874939D02*
X895061D01*
X874939Y710939D02*
Y749061D01*
X969939Y835294D02*
X990061D01*
X969939Y797172D02*
Y835294D01*
Y797172D02*
X990061D01*
Y835294D01*
M02*
