G04*
G04 #@! TF.GenerationSoftware,Altium Limited,Altium Designer,26.9.1 (10)*
G04*
G04 Layer_Color=16711935*
G04 Board_Origin=0|0*
%FSLAX44Y44*%
%MOMM*%
G71*
G04*
G04 #@! TF.SameCoordinates,2B30B767-B6A9-40EE-994A-0163BAC84609*
G04*
G04*
G04 #@! TF.FilePolarity,Positive*
G04*
G01*
G75*
%ADD11C,0.1270*%
%ADD12C,0.2000*%
%ADD44C,0.1000*%
D11*
X977500Y592500D02*
Y633000D01*
X832500D02*
X977500D01*
X832500Y592500D02*
Y633000D01*
Y592500D02*
X977500D01*
D12*
X956000Y576250D02*
G03*
X956000Y576250I-1000J0D01*
G01*
D44*
X954500Y779000D02*
G03*
X954500Y779000I-5000J0D01*
G01*
X901500Y747000D02*
X928500D01*
X901500Y713000D02*
X928500D01*
Y747000D01*
X901500Y713000D02*
Y747000D01*
X931500Y798000D02*
X958500D01*
X931500Y832000D02*
X958500D01*
X931500Y798000D02*
Y832000D01*
X958500Y798000D02*
Y832000D01*
X888000Y766500D02*
Y793500D01*
X922000Y766500D02*
Y793500D01*
X888000D02*
X922000D01*
X888000Y766500D02*
X922000D01*
X1141500Y642000D02*
X1168500D01*
X1141500Y608000D02*
X1168500D01*
Y642000D01*
X1141500Y608000D02*
Y642000D01*
X1112000Y686500D02*
Y713500D01*
X1078000Y686500D02*
Y713500D01*
Y686500D02*
X1112000D01*
X1078000Y713500D02*
X1112000D01*
X1114000Y715500D02*
X1141000D01*
X1114000Y749500D02*
X1141000D01*
X1114000Y715500D02*
Y749500D01*
X1141000Y715500D02*
Y749500D01*
X1149000D02*
X1176000D01*
X1149000Y715500D02*
X1176000D01*
Y749500D01*
X1149000Y715500D02*
Y749500D01*
X940500Y717000D02*
X1011500D01*
X940500Y788000D02*
X1011500D01*
Y717000D02*
Y788000D01*
X940500Y717000D02*
Y788000D01*
X756500Y678000D02*
X783500D01*
X756500Y712000D02*
X783500D01*
X756500Y678000D02*
Y712000D01*
X783500Y678000D02*
Y712000D01*
X785250Y792500D02*
X825250D01*
X785250D02*
Y832500D01*
X825250D01*
Y792500D02*
Y832500D01*
X836500Y678000D02*
X863500D01*
X836500Y712000D02*
X863500D01*
X836500Y678000D02*
Y712000D01*
X863500Y678000D02*
Y712000D01*
X1033000Y866500D02*
Y893500D01*
X1067000Y866500D02*
Y893500D01*
X1033000D02*
X1067000D01*
X1033000Y866500D02*
X1067000D01*
X965500Y669000D02*
Y696000D01*
X999500Y669000D02*
Y696000D01*
X965500D02*
X999500D01*
X965500Y669000D02*
X999500D01*
X1029000Y770500D02*
X1056000D01*
X1029000Y804500D02*
X1056000D01*
X1029000Y770500D02*
Y804500D01*
X1056000Y770500D02*
Y804500D01*
X1008000Y681500D02*
Y708500D01*
X1042000Y681500D02*
Y708500D01*
X1008000D02*
X1042000D01*
X1008000Y681500D02*
X1042000D01*
X884000Y801500D02*
Y828500D01*
X918000Y801500D02*
Y828500D01*
X884000D02*
X918000D01*
X884000Y801500D02*
X918000D01*
X836500Y827000D02*
X863500D01*
X836500Y793000D02*
X863500D01*
Y827000D01*
X836500Y793000D02*
Y827000D01*
X746500Y818000D02*
X773500D01*
X746500Y852000D02*
X773500D01*
X746500Y818000D02*
Y852000D01*
X773500Y818000D02*
Y852000D01*
X746500Y773000D02*
X773500D01*
X746500Y807000D02*
X773500D01*
X746500Y773000D02*
Y807000D01*
X773500Y773000D02*
Y807000D01*
X817000Y756500D02*
Y783500D01*
X783000Y756500D02*
Y783500D01*
Y756500D02*
X817000D01*
X783000Y783500D02*
X817000D01*
M02*
