G04*
G04 #@! TF.GenerationSoftware,Altium Limited,Altium Designer,26.9.1 (10)*
G04*
G04 Layer_Color=65535*
G04 Board_Origin=0|0*
%FSLAX44Y44*%
%MOMM*%
G71*
G04*
G04 #@! TF.SameCoordinates,2B30B767-B6A9-40EE-994A-0163BAC84609*
G04*
G04*
G04 #@! TF.FilePolarity,Positive*
G04*
G01*
G75*
%ADD10C,0.2500*%
%ADD11C,0.1270*%
%ADD12C,0.2000*%
%ADD13C,0.2540*%
D10*
X1185250Y756750D02*
G03*
X1185250Y756750I-1250J0D01*
G01*
X1130810Y655000D02*
G03*
X1130810Y655000I-1250J0D01*
G01*
X933750Y788000D02*
G03*
X933750Y788000I-1250J0D01*
G01*
X819000Y842000D02*
G03*
X819000Y842000I-1250J0D01*
G01*
X790250Y690000D02*
G03*
X790250Y690000I-1250J0D01*
G01*
D11*
X1032140Y854097D02*
G03*
X1019440Y841397I0J-12700D01*
G01*
Y825903D02*
G03*
X1032140Y813203I12700J0D01*
G01*
X1064792D02*
G03*
X1070359Y814488I0J12700D01*
G01*
X1086994Y822528D02*
G03*
X1090560Y828236I-2784J5707D01*
G01*
Y839064D02*
G03*
X1086994Y844772I-6350J0D01*
G01*
X1070359Y852812D02*
G03*
X1064792Y854097I-5567J-11415D01*
G01*
X1074050Y840000D02*
G03*
X1074050Y840000I-6350J0D01*
G01*
X1019440Y825903D02*
Y841397D01*
X1032140Y813203D02*
X1064792D01*
X1070318Y814469D02*
X1086973Y822518D01*
X1090560Y828236D02*
Y839064D01*
X1070318Y852831D02*
X1086973Y844782D01*
X1032140Y854097D02*
X1064792D01*
X832500Y592500D02*
Y605300D01*
X977500Y592500D02*
Y605300D01*
X832500Y592500D02*
X848800D01*
X961200D02*
X977500D01*
X844700Y633000D02*
X965300D01*
D12*
X956000Y576250D02*
G03*
X956000Y576250I-1000J0D01*
G01*
X927000Y724500D02*
Y735500D01*
X903000Y724500D02*
Y735500D01*
X1180939Y609706D02*
Y637828D01*
X1199061Y609706D02*
Y637828D01*
X920939Y869061D02*
X949061D01*
X920939Y850939D02*
X949061D01*
X962172D02*
X990294D01*
X962172Y869061D02*
X990294D01*
X933000Y809500D02*
Y820500D01*
X957000Y809500D02*
Y820500D01*
X899500Y792000D02*
X910500D01*
X899500Y768000D02*
X910500D01*
X1189000Y729550D02*
X1215750D01*
X1189000Y810450D02*
X1215750D01*
X1189000Y805750D02*
Y810450D01*
Y729550D02*
Y734250D01*
X1062035Y639575D02*
X1127085D01*
X1062035Y604525D02*
Y639575D01*
Y604525D02*
X1127085D01*
Y639575D01*
X1167000Y619500D02*
Y630500D01*
X1143000Y619500D02*
Y630500D01*
X1089500Y688000D02*
X1100500D01*
X1089500Y712000D02*
X1100500D01*
X1115500Y727000D02*
Y738000D01*
X1139500Y727000D02*
Y738000D01*
X1174500Y727000D02*
Y738000D01*
X1150500Y727000D02*
Y738000D01*
X939000Y715500D02*
X943250D01*
X939000D02*
Y719750D01*
X1008750Y715500D02*
X1013000D01*
Y719750D01*
Y785250D02*
Y789500D01*
X1008750D02*
X1013000D01*
X939000D02*
X943250D01*
X939000Y785250D02*
Y789500D01*
X758000Y689500D02*
Y700500D01*
X782000Y689500D02*
Y700500D01*
X826750Y791000D02*
Y794250D01*
X823500Y791000D02*
X826750D01*
X783750D02*
X787000D01*
X783750D02*
Y794250D01*
Y830750D02*
Y834000D01*
X787000D01*
X826750Y830750D02*
Y834000D01*
X823500D02*
X826750D01*
X795000Y680750D02*
X821500D01*
X795000Y711750D02*
X821500D01*
X1079706Y889061D02*
X1107828D01*
X1079706Y870939D02*
X1107828D01*
X838000Y689500D02*
Y700500D01*
X862000Y689500D02*
Y700500D01*
X875939Y715939D02*
Y744061D01*
X894061Y715939D02*
Y744061D01*
X989061Y802172D02*
Y830294D01*
X970939Y802172D02*
Y830294D01*
X1044500Y892000D02*
X1055500D01*
X1044500Y868000D02*
X1055500D01*
X977000Y694500D02*
X988000D01*
X977000Y670500D02*
X988000D01*
X1030500Y782000D02*
Y793000D01*
X1054500Y782000D02*
Y793000D01*
X1019500Y707000D02*
X1030500D01*
X1019500Y683000D02*
X1030500D01*
X895500Y827000D02*
X906500D01*
X895500Y803000D02*
X906500D01*
X862000Y804500D02*
Y815500D01*
X838000Y804500D02*
Y815500D01*
X748000Y829500D02*
Y840500D01*
X772000Y829500D02*
Y840500D01*
X748000Y784500D02*
Y795500D01*
X772000Y784500D02*
Y795500D01*
X794500Y758000D02*
X805500D01*
X794500Y782000D02*
X805500D01*
D13*
X1011171Y852165D02*
X1006092D01*
X1008632D01*
Y839469D01*
X1006092Y836930D01*
X1003553D01*
X1001014Y839469D01*
M02*
