G04*
G04 #@! TF.GenerationSoftware,Altium Limited,Altium Designer,26.9.1 (10)*
G04*
G04 Layer_Physical_Order=1*
G04 Layer_Color=255*
G04 Board_Origin=0|0*
%FSLAX44Y44*%
%MOMM*%
G71*
G04*
G04 #@! TF.SameCoordinates,2B30B767-B6A9-40EE-994A-0163BAC84609*
G04*
G04*
G04 #@! TF.FilePolarity,Positive*
G04*
G01*
G75*
%ADD10C,0.2500*%
%ADD13C,0.2540*%
%ADD14R,2.6000X0.9500*%
%ADD15O,0.2500X0.8000*%
%ADD16R,0.6000X1.7000*%
%ADD17R,1.0587X1.0121*%
%ADD18O,0.8000X0.2500*%
G04:AMPARAMS|DCode=19|XSize=1.0043mm|YSize=0.8721mm|CornerRadius=0.4361mm|HoleSize=0mm|Usage=FLASHONLY|Rotation=270.000|XOffset=0mm|YOffset=0mm|HoleType=Round|Shape=RoundedRectangle|*
%AMROUNDEDRECTD19*
21,1,1.0043,0.0000,0,0,270.0*
21,1,0.1322,0.8721,0,0,270.0*
1,1,0.8721,0.0000,-0.0661*
1,1,0.8721,0.0000,0.0661*
1,1,0.8721,0.0000,0.0661*
1,1,0.8721,0.0000,-0.0661*
%
%ADD19ROUNDEDRECTD19*%
G04:AMPARAMS|DCode=20|XSize=1.0043mm|YSize=3.1821mm|CornerRadius=0.4369mm|HoleSize=0mm|Usage=FLASHONLY|Rotation=270.000|XOffset=0mm|YOffset=0mm|HoleType=Round|Shape=RoundedRectangle|*
%AMROUNDEDRECTD20*
21,1,1.0043,2.3084,0,0,270.0*
21,1,0.1306,3.1821,0,0,270.0*
1,1,0.8737,-1.1542,-0.0653*
1,1,0.8737,-1.1542,0.0653*
1,1,0.8737,1.1542,0.0653*
1,1,0.8737,1.1542,-0.0653*
%
%ADD20ROUNDEDRECTD20*%
%ADD21R,0.9500X2.6000*%
%ADD22R,0.8500X0.3500*%
%ADD23R,0.3500X0.8000*%
%ADD24R,1.3800X0.4500*%
%ADD25R,1.0121X1.0587*%
%ADD26R,0.8721X1.0043*%
%ADD27R,2.6000X2.7000*%
%ADD28R,5.6000X5.6000*%
%ADD29R,1.1000X1.0000*%
%ADD30R,1.5500X1.4250*%
%ADD31R,1.9000X1.0000*%
%ADD32R,1.9000X1.8000*%
%ADD33R,1.3000X1.6500*%
%ADD34R,1.0000X2.7000*%
%ADD36C,0.7874*%
%ADD39C,1.5240*%
%ADD40C,1.0160*%
%ADD41C,1.2700*%
%ADD42C,0.7500*%
%ADD43C,0.5000*%
D10*
X755000Y790900D02*
X755900Y790000D01*
X768346D01*
X739250Y774404D02*
Y822596D01*
X745654Y829000D01*
X739250Y774404D02*
X745654Y768000D01*
X743750Y777636D02*
Y810096D01*
X745654Y829000D02*
X774346D01*
X776250Y827096D01*
X797750Y805000D02*
X805250Y812500D01*
X791096Y815000D02*
X805000D01*
X777714Y820000D02*
X785500D01*
X776250Y821464D02*
X777714Y820000D01*
X776250Y821464D02*
Y827096D01*
X771750Y831596D02*
Y845500D01*
X779904Y805000D02*
X797750D01*
X771750Y831596D02*
X774346Y829000D01*
X745654Y768000D02*
X774346D01*
X746386Y775000D02*
X753346D01*
X743750Y777636D02*
X746386Y775000D01*
X768346Y790000D02*
X777125Y798779D01*
Y802221D01*
X779904Y805000D01*
X753346Y775000D02*
X768346Y790000D01*
X785500Y815000D02*
X791096D01*
X774250D02*
X785500D01*
X792250Y789750D02*
X792750Y790250D01*
X778000Y771654D02*
Y784346D01*
X789750Y781750D02*
X792750Y784750D01*
X778000Y784346D02*
X783404Y789750D01*
X792250D01*
X774346Y768000D02*
X778000Y771654D01*
X742500Y735000D02*
X810000D01*
X786000Y761750D02*
X800000Y747750D01*
X817750Y792500D02*
X817750Y792500D01*
Y784750D02*
Y792500D01*
X817500Y784500D02*
X817750Y784750D01*
X827500Y708846D02*
X835654Y717000D01*
X848282D01*
X825250Y708846D02*
X827500D01*
X809618Y819382D02*
X810750D01*
X805250Y823750D02*
X809618Y819382D01*
X797368Y823750D02*
X805250D01*
X794000Y820382D02*
X797368Y823750D01*
X794000Y817904D02*
Y820382D01*
X791096Y815000D02*
X794000Y817904D01*
X743750Y810096D02*
X748654Y815000D01*
X919000Y771750D02*
Y780000D01*
X915500Y768250D02*
X919000Y771750D01*
X905750Y768250D02*
X915500D01*
X897500Y760000D02*
X905750Y768250D01*
X800000Y747500D02*
Y747750D01*
X786000Y761750D02*
Y770000D01*
X817750Y832500D02*
X817750Y832500D01*
Y859688D01*
X815400Y862038D02*
X817750Y859688D01*
X815400Y862038D02*
Y886476D01*
X821024Y892100D01*
X828976D01*
X834600Y886476D01*
Y856994D02*
Y886476D01*
X832553Y854947D02*
X834600Y856994D01*
X832553Y825464D02*
Y854947D01*
Y825464D02*
X834018Y824000D01*
X850000D01*
X825000Y825000D02*
X825000Y825000D01*
Y882500D01*
X825000Y820000D02*
X825000Y820000D01*
X831654D01*
X841654Y810000D01*
X842500D01*
X748654Y815000D02*
X774250D01*
X940000Y863767D02*
Y882500D01*
Y863767D02*
X943767Y860000D01*
X926233D02*
Y891535D01*
X927697Y893000D01*
X983536D01*
X985000Y891535D01*
Y860000D02*
Y891535D01*
X967466Y874966D02*
X967500Y875000D01*
X967466Y860000D02*
Y874966D01*
X870000Y863148D02*
Y896036D01*
X1036000Y856750D02*
X1042300Y850450D01*
X1036000Y856750D02*
Y880000D01*
X1077700Y765415D02*
Y817300D01*
X1037200Y809500D02*
X1055000Y827300D01*
X1024154Y805500D02*
X1028154Y809500D01*
X1037200D01*
X1037930Y820040D02*
Y821476D01*
X1026290Y814000D02*
X1031890D01*
X1042300Y825846D02*
Y827300D01*
X1019750Y805500D02*
X1024154D01*
X1037930Y821476D02*
X1042300Y825846D01*
X1031890Y814000D02*
X1037930Y820040D01*
X996464Y810000D02*
X1022290D01*
X1026290Y814000D01*
X1034250Y801500D02*
X1042500D01*
X1017750Y780000D02*
X1030750Y793000D01*
Y798000D01*
X1034250Y801500D01*
X1042500D02*
X1050750D01*
X1003500Y789250D02*
X1019750Y805500D01*
X1003500Y786500D02*
Y789250D01*
X993500Y807036D02*
X996464Y810000D01*
X1090000Y792500D02*
Y835830D01*
X1063048Y794452D02*
X1065000Y792500D01*
X934826Y750000D02*
X942000D01*
X927609Y757217D02*
X934826Y750000D01*
X934609Y758277D02*
X937886Y755000D01*
X942000D01*
X934609Y758277D02*
Y760116D01*
X930508Y764217D02*
X934609Y760116D01*
X925563Y764217D02*
X930508D01*
X925096Y763750D02*
X925563Y764217D01*
X912404Y763750D02*
X925096D01*
X897811Y749157D02*
X912404Y763750D01*
X872500Y825000D02*
Y860648D01*
X870000Y863148D02*
X872500Y860648D01*
X870000Y896036D02*
X871464Y897500D01*
X1040846D01*
X1048798Y889548D01*
Y886702D02*
Y889548D01*
Y886702D02*
X1055500Y880000D01*
X1064000D01*
X867250Y815000D02*
X887000D01*
X850000Y824000D02*
X858250D01*
X867250Y815000D01*
X887000Y792250D02*
X891000Y788250D01*
X887000Y792250D02*
Y815000D01*
X1064000Y877500D02*
Y880000D01*
X1060500Y874000D02*
X1064000Y877500D01*
X1055000Y874000D02*
X1060500D01*
X1064000Y880000D02*
X1072500D01*
X1075430Y882930D01*
Y885381D01*
X1078360Y888311D01*
X1093990D01*
X1102301Y880000D01*
X1102534D01*
X1077700Y862077D02*
Y872700D01*
X1067700Y852077D02*
X1077700Y862077D01*
X1067700Y840000D02*
Y852077D01*
X1050750Y801500D02*
X1057798Y794452D01*
X1063048D01*
X1083850Y841980D02*
X1090000Y835830D01*
X1076950Y841980D02*
X1083850D01*
X1075387Y840417D02*
X1076950Y841980D01*
X1068117Y840417D02*
X1075387D01*
X1067700Y840000D02*
X1068117Y840417D01*
X915000Y744000D02*
X916000Y745000D01*
X942000D01*
X1003500Y715750D02*
Y718500D01*
X1071660Y655000D02*
X1071660Y655000D01*
X1082503D01*
X1090774Y646729D01*
X1098743D01*
X1107014Y655000D01*
X1117460D01*
X1109000Y708250D02*
X1127500Y726750D01*
X1199400Y757000D02*
X1200400Y758000D01*
X1207646D01*
X1209550Y759904D01*
Y780096D01*
X1207646Y782000D02*
X1209550Y780096D01*
X1200400Y782000D02*
X1207646D01*
X1199400Y783000D02*
X1200400Y782000D01*
X1153536Y640464D02*
X1155000Y639000D01*
X1153536Y640464D02*
Y648536D01*
X1081000Y700000D02*
X1109000D01*
Y708250D01*
X1127500Y726750D02*
Y746500D01*
X1166000D02*
X1170750D01*
X1162500Y743000D02*
X1166000Y746500D01*
X1162500Y718500D02*
Y743000D01*
X1127500Y718500D02*
X1162500D01*
X810000Y735000D02*
X814000Y739000D01*
Y770000D01*
X817500Y773500D02*
Y784500D01*
X814000Y770000D02*
X817500Y773500D01*
X947811Y848536D02*
X962500Y833846D01*
X986104D01*
X926233Y847853D02*
Y860000D01*
Y847853D02*
X933250Y840836D01*
Y832500D02*
Y840836D01*
Y832500D02*
X936750Y829000D01*
X945000D01*
X980000Y824767D02*
Y825000D01*
X976189Y820956D02*
X980000Y824767D01*
X971457Y820956D02*
X976189D01*
X958000Y807500D02*
X971457Y820956D01*
X958000Y805750D02*
Y807500D01*
X953250Y801000D02*
X958000Y805750D01*
X945000Y801000D02*
X953250D01*
X992811Y812710D02*
Y833504D01*
X978500Y794250D02*
X982133Y797883D01*
X962543Y805679D02*
X972873Y816010D01*
X962543Y803608D02*
X973500Y792652D01*
X967466Y851189D02*
X976309Y842346D01*
X985367Y797883D02*
X989000Y801516D01*
X988311Y818360D02*
Y831640D01*
X978500Y786500D02*
Y794250D01*
X985960Y816010D02*
X988311Y818360D01*
X967466Y851189D02*
Y860000D01*
X976309Y842346D02*
X983968D01*
X992811Y833504D01*
X989000Y801516D02*
Y808900D01*
X986104Y833846D02*
X988311Y831640D01*
X989000Y808900D02*
X992811Y812710D01*
X982133Y797883D02*
X985367D01*
X962543Y803608D02*
Y805679D01*
X972873Y816010D02*
X985960D01*
X928750Y821000D02*
X936750Y829000D01*
X928750Y794904D02*
Y821000D01*
Y794904D02*
X930868Y792785D01*
X944965D01*
X948500Y789250D01*
Y786500D02*
Y789250D01*
X945000Y801000D02*
X950000D01*
X953500Y797500D01*
Y786500D02*
Y797500D01*
X999000Y707364D02*
Y725750D01*
X987000Y730500D02*
X994250D01*
X973500Y786500D02*
Y792652D01*
X947811Y848536D02*
Y856189D01*
X944000Y860000D02*
X947811Y856189D01*
X1055000Y840000D02*
Y874000D01*
X1067700Y827300D02*
X1077700Y817300D01*
X993500Y786500D02*
Y807036D01*
X1041000Y775000D02*
X1042500Y773500D01*
X1010000Y775000D02*
X1041000D01*
X1010000Y780000D02*
X1017750D01*
X786000Y770000D02*
Y778250D01*
X789500Y781750D01*
X789750D01*
X792750Y784750D02*
Y790250D01*
Y792500D01*
X768250Y849000D02*
X771750Y845500D01*
X760000Y849000D02*
X768250D01*
X760000Y821000D02*
X768250D01*
X774250Y815000D01*
X774250Y810000D02*
X785500D01*
X768250Y804000D02*
X774250Y810000D01*
X760000Y804000D02*
X768250D01*
X897811Y725233D02*
Y749157D01*
X893811Y721233D02*
X897811Y725233D01*
X885000Y721233D02*
X893811D01*
X934750Y727500D02*
Y736864D01*
X937886Y740000D01*
X942000D01*
X885000Y738534D02*
Y738767D01*
X881189Y734724D02*
X885000Y738534D01*
X877176Y734724D02*
X881189D01*
X861750Y719297D02*
X877176Y734724D01*
X861750Y712500D02*
Y719297D01*
X858250Y709000D02*
X861750Y712500D01*
X850000Y709000D02*
X858250D01*
X848282Y717000D02*
X878593Y747311D01*
X866250Y702904D02*
Y717433D01*
X890960Y729777D02*
X893311Y732127D01*
X866250Y717433D02*
X878593Y729777D01*
Y747311D02*
X891407D01*
X878593Y729777D02*
X890960D01*
X891407Y747311D02*
X893311Y745407D01*
Y732127D02*
Y745407D01*
X841750Y709000D02*
X850000D01*
X835250Y702500D02*
X841750Y709000D01*
X816500Y702500D02*
X835250D01*
X827096Y698000D02*
X861346D01*
X822846Y693750D02*
X827096Y698000D01*
X861346D02*
X866250Y702904D01*
X841750Y681000D02*
X850000D01*
X832750Y690000D02*
X841750Y681000D01*
X816500Y690000D02*
X832750D01*
X816500D02*
X820250Y693750D01*
X822846D01*
X823346Y710750D02*
X825250Y708846D01*
X808750Y710750D02*
X823346D01*
X800500Y702500D02*
X808750Y710750D01*
X800000Y702500D02*
X800500D01*
X770000Y709000D02*
X778250D01*
X784750Y702500D01*
X800000D01*
X740000Y732500D02*
X742500Y735000D01*
X740000Y667500D02*
Y732500D01*
Y667500D02*
X742500Y665000D01*
X792500D01*
X800000Y672500D01*
Y690000D01*
X770000Y681000D02*
X778250D01*
X787250Y690000D01*
X800000D01*
X1076036Y763750D02*
X1077700Y765415D01*
X1024904Y763750D02*
X1076036D01*
X1023000Y765654D02*
X1024904Y763750D01*
X1023000Y765654D02*
Y765864D01*
X1018864Y770000D02*
X1023000Y765864D01*
X1010000Y770000D02*
X1018864D01*
X1018500Y763790D02*
X1023040Y759250D01*
X1018500Y763790D02*
Y764000D01*
X1023250Y759250D02*
X1040000Y742500D01*
X1023040Y759250D02*
X1023250D01*
X1017500Y765000D02*
X1018500Y764000D01*
X1012500Y759500D02*
X1014614D01*
X1036614Y737500D01*
X1095000D01*
X1040000Y742500D02*
X1090000D01*
X1010000Y765000D02*
X1017500D01*
X1117500Y770000D02*
X1199400D01*
X1090000Y742500D02*
X1117500Y770000D01*
X1095000Y737500D02*
X1121000Y763500D01*
X1199400D01*
X975182Y681472D02*
Y694250D01*
Y681472D02*
X990404Y666250D01*
X1002596D01*
X1004500Y668154D01*
Y701864D01*
X999000Y707364D02*
X1004500Y701864D01*
X994250Y730500D02*
X999000Y725750D01*
X993500Y706500D02*
Y718500D01*
Y706500D02*
X996500Y703500D01*
Y682500D02*
Y703500D01*
X968500Y682500D02*
Y690750D01*
Y674250D02*
Y682500D01*
Y690750D02*
X972000Y694250D01*
X975182D01*
X963500Y706210D02*
Y718500D01*
X905000Y647710D02*
X963500Y706210D01*
X968500Y704846D02*
Y718500D01*
X955000Y691346D02*
X968500Y704846D01*
X955000Y660750D02*
X968500Y674250D01*
X955000Y590000D02*
Y660750D01*
X917500Y637500D02*
X955000Y675000D01*
Y691346D01*
X905000Y590000D02*
Y647710D01*
X958500Y713022D02*
Y718500D01*
X947978Y702500D02*
X958500Y713022D01*
X917500Y590000D02*
Y637500D01*
X916636Y708000D02*
X947114D01*
X953500Y714386D01*
Y718500D01*
X892500Y590000D02*
Y676136D01*
X918864Y702500D01*
X947978D01*
X880000Y670000D02*
X913000Y703000D01*
Y704364D01*
X916636Y708000D01*
X880000Y590000D02*
Y670000D01*
X1084767Y880000D02*
X1085000D01*
X1080956Y876189D02*
X1084767Y880000D01*
X1080956Y875956D02*
Y876189D01*
X1077700Y872700D02*
X1080956Y875956D01*
X1058500Y718500D02*
X1060000Y717000D01*
X1041500Y718500D02*
X1058500D01*
X1041500D02*
X1050000Y710000D01*
X1039000Y693500D02*
Y695000D01*
X1003500Y718500D02*
X1041500D01*
X1094560Y655000D02*
Y655661D01*
X1072307Y669158D02*
X1081063D01*
X1094560Y655661D01*
X1146750Y611000D02*
X1155000D01*
X1094560Y589100D02*
X1124850D01*
X1146750Y611000D01*
X1041364Y589100D02*
X1094560D01*
X1050000Y691464D02*
Y710000D01*
X1039000Y693500D02*
X1042500Y690000D01*
X1060000Y681464D02*
Y717000D01*
X1039000Y591465D02*
Y693500D01*
X1048536Y690000D02*
X1050000Y691464D01*
X1060000Y681464D02*
X1072307Y669158D01*
X1042500Y690000D02*
X1048536D01*
X1039000Y591465D02*
X1041364Y589100D01*
X919000Y780000D02*
X942000D01*
X915500Y783500D02*
X919000Y780000D01*
X919000Y780000D01*
X915000Y797750D02*
X915500Y797250D01*
X915000Y797750D02*
Y815000D01*
X915500Y783500D02*
Y797250D01*
X923250Y716000D02*
X934750Y727500D01*
X915000Y716000D02*
X923250D01*
X906750D02*
X915000D01*
X872500Y681750D02*
X906750Y716000D01*
X872500Y677500D02*
Y681750D01*
X855000Y590000D02*
Y660000D01*
X872500Y677500D01*
X1042300Y840000D02*
Y850450D01*
X1181250Y757000D02*
X1199400D01*
X1170750Y746500D02*
X1181250Y757000D01*
X1153536Y648536D02*
X1155000Y650000D01*
X1117460Y654339D02*
X1132799Y639000D01*
X1210000Y620000D02*
Y648536D01*
X1208536Y650000D02*
X1210000Y648536D01*
X1205000Y615000D02*
X1210000Y620000D01*
X1190000Y615000D02*
X1205000D01*
X1155000Y650000D02*
X1208536D01*
X1132799Y639000D02*
X1155000D01*
X998500Y714386D02*
X1006136Y706750D01*
X1007500D01*
X1109000Y664121D02*
X1117460Y655661D01*
Y655000D02*
Y655661D01*
X1011000Y695000D02*
Y703250D01*
X1007500Y706750D02*
X1011000Y703250D01*
X1109000Y664121D02*
Y700000D01*
X891000Y780000D02*
Y788250D01*
D13*
X720000Y910000D02*
X730000D01*
X710000Y900000D02*
X720000Y910000D01*
X710000Y560000D02*
Y900000D01*
Y560000D02*
X720000Y550000D01*
X730000D01*
X1250000D01*
X1260000Y560000D01*
Y900000D01*
X1250000Y910000D02*
X1260000Y900000D01*
X730000Y910000D02*
X1250000D01*
D14*
X915000Y744000D02*
D03*
Y716000D02*
D03*
X1042500Y801500D02*
D03*
X1155000Y611000D02*
D03*
X945000Y829000D02*
D03*
X760000Y849000D02*
D03*
X1162500Y746500D02*
D03*
X1042500Y773500D02*
D03*
X1162500Y718500D02*
D03*
X1127500D02*
D03*
X1155000Y639000D02*
D03*
X945000Y801000D02*
D03*
X850000Y824000D02*
D03*
X760000Y821000D02*
D03*
Y776000D02*
D03*
X770000Y681000D02*
D03*
X1127500Y746500D02*
D03*
X770000Y709000D02*
D03*
X850000Y681000D02*
D03*
Y709000D02*
D03*
X850000Y796000D02*
D03*
X760000Y804000D02*
D03*
D15*
X968500Y718500D02*
D03*
X953500D02*
D03*
X963500D02*
D03*
X1003500D02*
D03*
X948500Y786500D02*
D03*
X998500Y718500D02*
D03*
X953500Y786500D02*
D03*
X958500Y718500D02*
D03*
Y786500D02*
D03*
X963500D02*
D03*
X968500D02*
D03*
X973500D02*
D03*
X978500D02*
D03*
X983500D02*
D03*
X988500D02*
D03*
X993500D02*
D03*
X998500D02*
D03*
X1003500D02*
D03*
X993500Y718500D02*
D03*
X988500D02*
D03*
X983500D02*
D03*
X978500D02*
D03*
X973500D02*
D03*
X948500D02*
D03*
D16*
X917500Y590000D02*
D03*
X880000D02*
D03*
X905000D02*
D03*
X855000D02*
D03*
X955000D02*
D03*
X892500D02*
D03*
X867500D02*
D03*
X930000D02*
D03*
X942500D02*
D03*
D17*
X1085000Y880000D02*
D03*
X985000Y860000D02*
D03*
X926233D02*
D03*
X943767D02*
D03*
X967466D02*
D03*
X1102534Y880000D02*
D03*
D18*
X1010000Y780000D02*
D03*
X942000D02*
D03*
Y740000D02*
D03*
X1010000Y775000D02*
D03*
X942000Y760000D02*
D03*
Y745000D02*
D03*
X1010000Y770000D02*
D03*
Y765000D02*
D03*
Y760000D02*
D03*
Y755000D02*
D03*
Y750000D02*
D03*
Y745000D02*
D03*
Y740000D02*
D03*
Y735000D02*
D03*
Y730000D02*
D03*
Y725000D02*
D03*
X942000D02*
D03*
Y730000D02*
D03*
Y735000D02*
D03*
Y750000D02*
D03*
Y755000D02*
D03*
Y765000D02*
D03*
Y770000D02*
D03*
Y775000D02*
D03*
D19*
X1094560Y655000D02*
D03*
X1071660D02*
D03*
D20*
X1094560Y589100D02*
D03*
D21*
X1039000Y695000D02*
D03*
X915000Y815000D02*
D03*
X919000Y780000D02*
D03*
X786000Y770000D02*
D03*
X1036000Y880000D02*
D03*
X1109000Y700000D02*
D03*
X1011000Y695000D02*
D03*
X887000Y815000D02*
D03*
X968500Y682500D02*
D03*
X891000Y780000D02*
D03*
X814000Y770000D02*
D03*
X1081000Y700000D02*
D03*
X1064000Y880000D02*
D03*
X996500Y682500D02*
D03*
D22*
X785500Y820000D02*
D03*
Y815000D02*
D03*
Y805000D02*
D03*
X825000Y800000D02*
D03*
Y805000D02*
D03*
Y810000D02*
D03*
Y815000D02*
D03*
Y820000D02*
D03*
Y825000D02*
D03*
X785500Y800000D02*
D03*
Y810000D02*
D03*
Y825000D02*
D03*
D23*
X792750Y792500D02*
D03*
X817750Y832500D02*
D03*
Y792500D02*
D03*
X797750D02*
D03*
X802750D02*
D03*
X807750D02*
D03*
X812750D02*
D03*
X792750Y832500D02*
D03*
X797750D02*
D03*
X802750D02*
D03*
X807750D02*
D03*
X812750D02*
D03*
D24*
X1199400Y783000D02*
D03*
Y757000D02*
D03*
Y776500D02*
D03*
Y770000D02*
D03*
Y763500D02*
D03*
D25*
X980000Y825000D02*
D03*
X1190000Y615000D02*
D03*
Y632534D02*
D03*
X885000Y738767D02*
D03*
Y721233D02*
D03*
X980000Y807466D02*
D03*
D26*
X1117460Y655000D02*
D03*
D27*
X805250Y812500D02*
D03*
D28*
X976000Y752500D02*
D03*
D29*
X800000Y690000D02*
D03*
Y702500D02*
D03*
X816500D02*
D03*
Y690000D02*
D03*
D30*
X1200250Y794875D02*
D03*
Y745125D02*
D03*
D31*
X1226000Y785500D02*
D03*
D32*
Y758500D02*
D03*
D33*
Y803750D02*
D03*
Y736250D02*
D03*
D34*
X836500Y622000D02*
D03*
X973500D02*
D03*
D36*
X1067700Y840000D02*
D03*
X1042300D02*
D03*
X1067700Y827300D02*
D03*
X1055000D02*
D03*
X1042300D02*
D03*
X1055000Y840000D02*
D03*
D39*
X1240000Y570000D02*
D03*
Y890000D02*
D03*
X730000D02*
D03*
Y570000D02*
D03*
D40*
X1029600Y843810D02*
D03*
Y823490D02*
D03*
X1080400Y833650D02*
D03*
D41*
X755000Y790900D02*
D03*
X800000Y745000D02*
D03*
X842500Y810000D02*
D03*
X825000Y882500D02*
D03*
X967500Y877500D02*
D03*
X940000Y882500D02*
D03*
X1065000Y792500D02*
D03*
X1090000D02*
D03*
X872500Y825000D02*
D03*
D42*
X897500Y760000D02*
D03*
X927609Y757217D02*
D03*
D43*
X998000Y774500D02*
D03*
X987000D02*
D03*
X998000Y763500D02*
D03*
Y741500D02*
D03*
Y752500D02*
D03*
X987000D02*
D03*
Y763500D02*
D03*
Y741500D02*
D03*
X976000D02*
D03*
X998000Y730500D02*
D03*
X987000D02*
D03*
X965000Y774500D02*
D03*
X954000D02*
D03*
X810750Y818000D02*
D03*
X799750D02*
D03*
X810750Y807000D02*
D03*
X799750D02*
D03*
X976000Y763500D02*
D03*
Y774500D02*
D03*
Y752500D02*
D03*
X965000D02*
D03*
Y763500D02*
D03*
X954000Y752500D02*
D03*
Y741500D02*
D03*
X965000Y730500D02*
D03*
Y741500D02*
D03*
X976000Y730500D02*
D03*
X954000D02*
D03*
Y763500D02*
D03*
M02*
