G04*
G04 #@! TF.GenerationSoftware,Altium Limited,Altium Designer,26.9.1 (10)*
G04*
G04 Layer_Color=128*
G04 Board_Origin=0|0*
%FSLAX44Y44*%
%MOMM*%
G71*
G04*
G04 #@! TF.SameCoordinates,2B30B767-B6A9-40EE-994A-0163BAC84609*
G04*
G04*
G04 #@! TF.FilePolarity,Positive*
G04*
G01*
G75*
%ADD11C,0.1270*%
D11*
X1236190Y570000D02*
X1243810D01*
X1240000Y566190D02*
Y573810D01*
X1236190Y890000D02*
X1243810D01*
X1240000Y886190D02*
Y893810D01*
X726190Y890000D02*
X733810D01*
X730000Y886190D02*
Y893810D01*
X726190Y570000D02*
X733810D01*
X730000Y566190D02*
Y573810D01*
X1024520Y843810D02*
X1034680D01*
X1029600Y838730D02*
Y848890D01*
X1024520Y823490D02*
X1034680D01*
X1029600Y818410D02*
Y828570D01*
X1075320Y833650D02*
X1085480D01*
X1080400Y828570D02*
Y838730D01*
X751444Y790900D02*
X758556D01*
X755000Y787344D02*
Y794456D01*
X893944Y760000D02*
X901056D01*
X897500Y756444D02*
Y763556D01*
X796444Y745000D02*
X803556D01*
X800000Y741444D02*
Y748556D01*
X838944Y810000D02*
X846056D01*
X842500Y806444D02*
Y813556D01*
X821444Y882500D02*
X828556D01*
X825000Y878944D02*
Y886056D01*
X963944Y877500D02*
X971056D01*
X967500Y873944D02*
Y881056D01*
X936444Y882500D02*
X943556D01*
X940000Y878944D02*
Y886056D01*
X1061444Y792500D02*
X1068556D01*
X1065000Y788944D02*
Y796056D01*
X1086444Y792500D02*
X1093556D01*
X1090000Y788944D02*
Y796056D01*
X924053Y757217D02*
X931165D01*
X927609Y753661D02*
Y760773D01*
X868944Y825000D02*
X876056D01*
X872500Y821444D02*
Y828556D01*
X997000Y774500D02*
X999000D01*
X998000Y773500D02*
Y775500D01*
X986000Y774500D02*
X988000D01*
X987000Y773500D02*
Y775500D01*
X997000Y763500D02*
X999000D01*
X998000Y762500D02*
Y764500D01*
X997000Y741500D02*
X999000D01*
X998000Y740500D02*
Y742500D01*
X997000Y752500D02*
X999000D01*
X998000Y751500D02*
Y753500D01*
X986000Y752500D02*
X988000D01*
X987000Y751500D02*
Y753500D01*
X986000Y763500D02*
X988000D01*
X987000Y762500D02*
Y764500D01*
X986000Y741500D02*
X988000D01*
X987000Y740500D02*
Y742500D01*
X975000Y741500D02*
X977000D01*
X976000Y740500D02*
Y742500D01*
X997000Y730500D02*
X999000D01*
X998000Y729500D02*
Y731500D01*
X986000Y730500D02*
X988000D01*
X987000Y729500D02*
Y731500D01*
X964000Y774500D02*
X966000D01*
X965000Y773500D02*
Y775500D01*
X953000Y774500D02*
X955000D01*
X954000Y773500D02*
Y775500D01*
X809750Y818000D02*
X811750D01*
X810750Y817000D02*
Y819000D01*
X798750Y818000D02*
X800750D01*
X799750Y817000D02*
Y819000D01*
X809750Y807000D02*
X811750D01*
X810750Y806000D02*
Y808000D01*
X798750Y807000D02*
X800750D01*
X799750Y806000D02*
Y808000D01*
X975000Y763500D02*
X977000D01*
X976000Y762500D02*
Y764500D01*
X975000Y774500D02*
X977000D01*
X976000Y773500D02*
Y775500D01*
X975000Y752500D02*
X977000D01*
X976000Y751500D02*
Y753500D01*
X964000Y752500D02*
X966000D01*
X965000Y751500D02*
Y753500D01*
X964000Y763500D02*
X966000D01*
X965000Y762500D02*
Y764500D01*
X953000Y752500D02*
X955000D01*
X954000Y751500D02*
Y753500D01*
X953000Y741500D02*
X955000D01*
X954000Y740500D02*
Y742500D01*
X964000Y730500D02*
X966000D01*
X965000Y729500D02*
Y731500D01*
X964000Y741500D02*
X966000D01*
X965000Y740500D02*
Y742500D01*
X975000Y730500D02*
X977000D01*
X976000Y729500D02*
Y731500D01*
X953000Y730500D02*
X955000D01*
X954000Y729500D02*
Y731500D01*
X953000Y763500D02*
X955000D01*
X954000Y762500D02*
Y764500D01*
M02*
