G04*
G04 #@! TF.GenerationSoftware,Altium Limited,Altium Designer,26.9.1 (10)*
G04*
G04 Layer_Color=16711935*
G04 Board_Origin=0|0*
%FSLAX44Y44*%
%MOMM*%
G71*
G04*
G04 #@! TF.SameCoordinates,2B30B767-B6A9-40EE-994A-0163BAC84609*
G04*
G04*
G04 #@! TF.FilePolarity,Negative*
G04*
G01*
G75*
%ADD39C,1.5240*%
%ADD40C,1.0160*%
%ADD41C,1.2700*%
%ADD42C,0.7500*%
%ADD43C,0.5000*%
D39*
X1240000Y570000D02*
D03*
Y890000D02*
D03*
X730000D02*
D03*
Y570000D02*
D03*
D40*
X1029600Y843810D02*
D03*
Y823490D02*
D03*
X1080400Y833650D02*
D03*
D41*
X755000Y790900D02*
D03*
X800000Y745000D02*
D03*
X842500Y810000D02*
D03*
X825000Y882500D02*
D03*
X967500Y877500D02*
D03*
X940000Y882500D02*
D03*
X1065000Y792500D02*
D03*
X1090000D02*
D03*
X872500Y825000D02*
D03*
D42*
X897500Y760000D02*
D03*
X927609Y757217D02*
D03*
D43*
X998000Y774500D02*
D03*
X987000D02*
D03*
X998000Y763500D02*
D03*
Y741500D02*
D03*
Y752500D02*
D03*
X987000D02*
D03*
Y763500D02*
D03*
Y741500D02*
D03*
X976000D02*
D03*
X998000Y730500D02*
D03*
X987000D02*
D03*
X965000Y774500D02*
D03*
X954000D02*
D03*
X810750Y818000D02*
D03*
X799750D02*
D03*
X810750Y807000D02*
D03*
X799750D02*
D03*
X976000Y763500D02*
D03*
Y774500D02*
D03*
Y752500D02*
D03*
X965000D02*
D03*
Y763500D02*
D03*
X954000Y752500D02*
D03*
Y741500D02*
D03*
X965000Y730500D02*
D03*
Y741500D02*
D03*
X976000Y730500D02*
D03*
X954000D02*
D03*
Y763500D02*
D03*
M02*
