G04*
G04 #@! TF.GenerationSoftware,Altium Limited,Altium Designer,26.9.1 (10)*
G04*
G04 Layer_Color=32768*
G04 Board_Origin=0|0*
%FSLAX44Y44*%
%MOMM*%
G71*
G04*
G04 #@! TF.SameCoordinates,2B30B767-B6A9-40EE-994A-0163BAC84609*
G04*
G04*
G04 #@! TF.FilePolarity,Positive*
G04*
G01*
G75*
%ADD44C,0.1000*%
%ADD45C,0.0500*%
G36*
X1042300Y840000D02*
X1067700D01*
Y827300D01*
X1042300D01*
Y840000D01*
D02*
G37*
D44*
X915000Y725000D02*
Y735000D01*
X910000Y730000D02*
X920000D01*
X945000Y810000D02*
Y820000D01*
X940000Y815000D02*
X950000D01*
X900000Y780000D02*
X910000D01*
X905000Y775000D02*
Y785000D01*
X1155000Y620000D02*
Y630000D01*
X1150000Y625000D02*
X1160000D01*
X1090000Y700000D02*
X1100000D01*
X1095000Y695000D02*
Y705000D01*
X1127500Y727500D02*
Y737500D01*
X1122500Y732500D02*
X1132500D01*
X1162500Y727500D02*
Y737500D01*
X1157500Y732500D02*
X1167500D01*
X976000Y747500D02*
Y757500D01*
X971000Y752500D02*
X981000D01*
X770000Y690000D02*
Y700000D01*
X765000Y695000D02*
X775000D01*
X800250Y812500D02*
X810250D01*
X805250Y807500D02*
Y817500D01*
X850000Y690000D02*
Y700000D01*
X845000Y695000D02*
X855000D01*
X1045000Y880000D02*
X1055000D01*
X1050000Y875000D02*
Y885000D01*
X977500Y682500D02*
X987500D01*
X982500Y677500D02*
Y687500D01*
X1042500Y782500D02*
Y792500D01*
X1037500Y787500D02*
X1047500D01*
X1020000Y695000D02*
X1030000D01*
X1025000Y690000D02*
Y700000D01*
X896000Y815000D02*
X906000D01*
X901000Y810000D02*
Y820000D01*
X850000Y805000D02*
Y815000D01*
X845000Y810000D02*
X855000D01*
X760000Y830000D02*
Y840000D01*
X755000Y835000D02*
X765000D01*
X760000Y785000D02*
Y795000D01*
X755000Y790000D02*
X765000D01*
X795000Y770000D02*
X805000D01*
X800000Y765000D02*
Y775000D01*
D45*
X901000Y750000D02*
X929000D01*
X901000Y710000D02*
X929000D01*
Y750000D01*
X901000Y710000D02*
Y750000D01*
X931000Y795000D02*
X959000D01*
X931000Y835000D02*
X959000D01*
X931000Y795000D02*
Y835000D01*
X959000Y795000D02*
Y835000D01*
X885000Y766000D02*
Y794000D01*
X925000Y766000D02*
Y794000D01*
X885000D02*
X925000D01*
X885000Y766000D02*
X925000D01*
X1141000Y645000D02*
X1169000D01*
X1141000Y605000D02*
X1169000D01*
Y645000D01*
X1141000Y605000D02*
Y645000D01*
X1115000Y686000D02*
Y714000D01*
X1075000Y686000D02*
Y714000D01*
Y686000D02*
X1115000D01*
X1075000Y714000D02*
X1115000D01*
X1113500Y712500D02*
X1141500D01*
X1113500Y752500D02*
X1141500D01*
X1113500Y712500D02*
Y752500D01*
X1141500Y712500D02*
Y752500D01*
X1148500Y752500D02*
X1176500D01*
X1148500Y712500D02*
X1176500D01*
Y752500D01*
X1148500Y712500D02*
Y752500D01*
X937000Y713500D02*
X1015000D01*
X937000Y791500D02*
X1015000D01*
Y713500D02*
Y791500D01*
X937000Y713500D02*
Y791500D01*
X981000Y579000D02*
Y638000D01*
X829000D02*
X981000D01*
X829000Y579000D02*
Y638000D01*
Y579000D02*
X981000D01*
X756000Y675000D02*
X784000D01*
X756000Y715000D02*
X784000D01*
X756000Y675000D02*
Y715000D01*
X784000Y675000D02*
Y715000D01*
X780250Y837500D02*
X830250D01*
X780250Y787500D02*
Y837500D01*
Y787500D02*
X830250D01*
Y837500D01*
X836000Y675000D02*
X864000D01*
X836000Y715000D02*
X864000D01*
X836000Y675000D02*
Y715000D01*
X864000Y675000D02*
Y715000D01*
X1030000Y866000D02*
Y894000D01*
X1070000Y866000D02*
Y894000D01*
X1030000D02*
X1070000D01*
X1030000Y866000D02*
X1070000D01*
X962500Y668500D02*
Y696500D01*
X1002500Y668500D02*
Y696500D01*
X962500D02*
X1002500D01*
X962500Y668500D02*
X1002500D01*
X1028500Y767500D02*
X1056500D01*
X1028500Y807500D02*
X1056500D01*
X1028500Y767500D02*
Y807500D01*
X1056500Y767500D02*
Y807500D01*
X1005000Y681000D02*
Y709000D01*
X1045000Y681000D02*
Y709000D01*
X1005000D02*
X1045000D01*
X1005000Y681000D02*
X1045000D01*
X881000Y801000D02*
Y829000D01*
X921000Y801000D02*
Y829000D01*
X881000D02*
X921000D01*
X881000Y801000D02*
X921000D01*
X836000Y830000D02*
X864000D01*
X836000Y790000D02*
X864000D01*
Y830000D01*
X836000Y790000D02*
Y830000D01*
X746000Y815000D02*
X774000D01*
X746000Y855000D02*
X774000D01*
X746000Y815000D02*
Y855000D01*
X774000Y815000D02*
Y855000D01*
X746000Y770000D02*
X774000D01*
X746000Y810000D02*
X774000D01*
X746000Y770000D02*
Y810000D01*
X774000Y770000D02*
Y810000D01*
X820000Y756000D02*
Y784000D01*
X780000Y756000D02*
Y784000D01*
Y756000D02*
X820000D01*
X780000Y784000D02*
X820000D01*
M02*
