G04*
G04 #@! TF.GenerationSoftware,Altium Limited,Altium Designer,26.9.1 (10)*
G04*
G04 Layer_Color=8388736*
G04 Board_Origin=0|0*
%FSLAX44Y44*%
%MOMM*%
G71*
G04*
G04 #@! TF.SameCoordinates,2B30B767-B6A9-40EE-994A-0163BAC84609*
G04*
G04*
G04 #@! TF.FilePolarity,Positive*
G04*
G01*
G75*
%ADD12C,0.2000*%
D12*
X1186000Y615767D02*
X1194000D01*
Y631767D01*
X1186000D02*
X1194000D01*
X1186000Y615767D02*
Y631767D01*
X927000Y856000D02*
Y864000D01*
Y856000D02*
X943000D01*
Y864000D01*
X927000D02*
X943000D01*
X984233Y856000D02*
Y864000D01*
X968233D02*
X984233D01*
X968233Y856000D02*
Y864000D01*
Y856000D02*
X984233D01*
X1240500Y727000D02*
Y813000D01*
X1189000Y729550D02*
X1246300D01*
Y810450D01*
X1189000D02*
X1246300D01*
X1189000Y729550D02*
Y810450D01*
X1062035Y639575D02*
X1127085D01*
X1062035Y604525D02*
Y639575D01*
Y604525D02*
X1127085D01*
Y639575D01*
X795000Y685500D02*
Y707000D01*
Y685500D02*
X821500D01*
Y707000D01*
X795000D02*
X821500D01*
X1085767Y876000D02*
Y884000D01*
Y876000D02*
X1101767D01*
Y884000D01*
X1085767D02*
X1101767D01*
X881000Y722000D02*
X889000D01*
Y738000D01*
X881000D02*
X889000D01*
X881000Y722000D02*
Y738000D01*
X976000Y824233D02*
X984000D01*
X976000Y808233D02*
Y824233D01*
Y808233D02*
X984000D01*
Y824233D01*
M02*
