M48
;Layer_Color=9474304
;FILE_FORMAT=4:4
METRIC,LZ
;TYPE=PLATED
T01F00S00C0.2000
T02F00S00C0.7112
T03F00S00C0.7620
;TYPE=NON_PLATED
T04F00S00C1.0160
%
T01
X00954Y007305
Y007415
Y007525
X00965
X00976
X00987
X00998
Y007635
X00987
Y007745
X00998
X00976
X00965
X00954
Y007635
X00965
X00976
Y007415
Y007305
X00987
Y007415
X00998
Y007305
X00965
Y007415
X0081075Y00807
Y00818
X0079975
Y00807
T02
X008Y00745
X008975Y0076
X00927609Y00757217
X01065Y007925
X0109
X00755Y007909
X008425Y0081
X008725Y00825
X00825Y008825
X0094
X009675Y008775
T03
X0124Y0057
X0073
Y0089
X0124
T04
X010296Y0082349
Y0084381
X010804Y0083365
M30
