G04*
G04 #@! TF.GenerationSoftware,Altium Limited,Altium Designer,26.9.1 (10)*
G04*
G04 Layer_Color=8421504*
G04 Board_Origin=0|0*
%FSLAX44Y44*%
%MOMM*%
G71*
G04*
G04 #@! TF.SameCoordinates,2B30B767-B6A9-40EE-994A-0163BAC84609*
G04*
G04*
G04 #@! TF.FilePolarity,Positive*
G04*
G01*
G75*
%ADD14R,2.6000X0.9500*%
%ADD15O,0.2500X0.8000*%
%ADD16R,0.6000X1.7000*%
%ADD17R,1.0587X1.0121*%
%ADD18O,0.8000X0.2500*%
G04:AMPARAMS|DCode=19|XSize=1.0043mm|YSize=0.8721mm|CornerRadius=0.4361mm|HoleSize=0mm|Usage=FLASHONLY|Rotation=270.000|XOffset=0mm|YOffset=0mm|HoleType=Round|Shape=RoundedRectangle|*
%AMROUNDEDRECTD19*
21,1,1.0043,0.0000,0,0,270.0*
21,1,0.1322,0.8721,0,0,270.0*
1,1,0.8721,0.0000,-0.0661*
1,1,0.8721,0.0000,0.0661*
1,1,0.8721,0.0000,0.0661*
1,1,0.8721,0.0000,-0.0661*
%
%ADD19ROUNDEDRECTD19*%
G04:AMPARAMS|DCode=20|XSize=1.0043mm|YSize=3.1821mm|CornerRadius=0.4369mm|HoleSize=0mm|Usage=FLASHONLY|Rotation=270.000|XOffset=0mm|YOffset=0mm|HoleType=Round|Shape=RoundedRectangle|*
%AMROUNDEDRECTD20*
21,1,1.0043,2.3084,0,0,270.0*
21,1,0.1306,3.1821,0,0,270.0*
1,1,0.8737,-1.1542,-0.0653*
1,1,0.8737,-1.1542,0.0653*
1,1,0.8737,1.1542,0.0653*
1,1,0.8737,1.1542,-0.0653*
%
%ADD20ROUNDEDRECTD20*%
%ADD21R,0.9500X2.6000*%
%ADD22R,0.8500X0.3500*%
%ADD23R,0.3500X0.8000*%
%ADD24R,1.3800X0.4500*%
%ADD25R,1.0121X1.0587*%
%ADD26R,0.8721X1.0043*%
%ADD27R,2.6000X2.7000*%
%ADD28R,5.6000X5.6000*%
%ADD29R,1.1000X1.0000*%
%ADD30R,1.5500X1.4250*%
%ADD31R,1.9000X1.0000*%
%ADD32R,1.9000X1.8000*%
%ADD33R,1.3000X1.6500*%
%ADD34R,1.0000X2.7000*%
D14*
X915000Y744000D02*
D03*
Y716000D02*
D03*
X1042500Y801500D02*
D03*
X1155000Y611000D02*
D03*
X945000Y829000D02*
D03*
X760000Y849000D02*
D03*
X1162500Y746500D02*
D03*
X1042500Y773500D02*
D03*
X1162500Y718500D02*
D03*
X1127500D02*
D03*
X1155000Y639000D02*
D03*
X945000Y801000D02*
D03*
X850000Y824000D02*
D03*
X760000Y821000D02*
D03*
Y776000D02*
D03*
X770000Y681000D02*
D03*
X1127500Y746500D02*
D03*
X770000Y709000D02*
D03*
X850000Y681000D02*
D03*
Y709000D02*
D03*
X850000Y796000D02*
D03*
X760000Y804000D02*
D03*
D15*
X968500Y718500D02*
D03*
X953500D02*
D03*
X963500D02*
D03*
X1003500D02*
D03*
X948500Y786500D02*
D03*
X998500Y718500D02*
D03*
X953500Y786500D02*
D03*
X958500Y718500D02*
D03*
Y786500D02*
D03*
X963500D02*
D03*
X968500D02*
D03*
X973500D02*
D03*
X978500D02*
D03*
X983500D02*
D03*
X988500D02*
D03*
X993500D02*
D03*
X998500D02*
D03*
X1003500D02*
D03*
X993500Y718500D02*
D03*
X988500D02*
D03*
X983500D02*
D03*
X978500D02*
D03*
X973500D02*
D03*
X948500D02*
D03*
D16*
X917500Y590000D02*
D03*
X880000D02*
D03*
X905000D02*
D03*
X855000D02*
D03*
X955000D02*
D03*
X892500D02*
D03*
X867500D02*
D03*
X930000D02*
D03*
X942500D02*
D03*
D17*
X1085000Y880000D02*
D03*
X985000Y860000D02*
D03*
X926233D02*
D03*
X943767D02*
D03*
X967466D02*
D03*
X1102534Y880000D02*
D03*
D18*
X1010000Y780000D02*
D03*
X942000D02*
D03*
Y740000D02*
D03*
X1010000Y775000D02*
D03*
X942000Y760000D02*
D03*
Y745000D02*
D03*
X1010000Y770000D02*
D03*
Y765000D02*
D03*
Y760000D02*
D03*
Y755000D02*
D03*
Y750000D02*
D03*
Y745000D02*
D03*
Y740000D02*
D03*
Y735000D02*
D03*
Y730000D02*
D03*
Y725000D02*
D03*
X942000D02*
D03*
Y730000D02*
D03*
Y735000D02*
D03*
Y750000D02*
D03*
Y755000D02*
D03*
Y765000D02*
D03*
Y770000D02*
D03*
Y775000D02*
D03*
D19*
X1094560Y655000D02*
D03*
X1071660D02*
D03*
D20*
X1094560Y589100D02*
D03*
D21*
X1039000Y695000D02*
D03*
X915000Y815000D02*
D03*
X919000Y780000D02*
D03*
X786000Y770000D02*
D03*
X1036000Y880000D02*
D03*
X1109000Y700000D02*
D03*
X1011000Y695000D02*
D03*
X887000Y815000D02*
D03*
X968500Y682500D02*
D03*
X891000Y780000D02*
D03*
X814000Y770000D02*
D03*
X1081000Y700000D02*
D03*
X1064000Y880000D02*
D03*
X996500Y682500D02*
D03*
D22*
X785500Y820000D02*
D03*
Y815000D02*
D03*
Y805000D02*
D03*
X825000Y800000D02*
D03*
Y805000D02*
D03*
Y810000D02*
D03*
Y815000D02*
D03*
Y820000D02*
D03*
Y825000D02*
D03*
X785500Y800000D02*
D03*
Y810000D02*
D03*
Y825000D02*
D03*
D23*
X792750Y792500D02*
D03*
X817750Y832500D02*
D03*
Y792500D02*
D03*
X797750D02*
D03*
X802750D02*
D03*
X807750D02*
D03*
X812750D02*
D03*
X792750Y832500D02*
D03*
X797750D02*
D03*
X802750D02*
D03*
X807750D02*
D03*
X812750D02*
D03*
D24*
X1199400Y783000D02*
D03*
Y757000D02*
D03*
Y776500D02*
D03*
Y770000D02*
D03*
Y763500D02*
D03*
D25*
X980000Y825000D02*
D03*
X1190000Y615000D02*
D03*
Y632534D02*
D03*
X885000Y738767D02*
D03*
Y721233D02*
D03*
X980000Y807466D02*
D03*
D26*
X1117460Y655000D02*
D03*
D27*
X805250Y812500D02*
D03*
D28*
X976000Y752500D02*
D03*
D29*
X800000Y690000D02*
D03*
Y702500D02*
D03*
X816500D02*
D03*
Y690000D02*
D03*
D30*
X1200250Y794875D02*
D03*
Y745125D02*
D03*
D31*
X1226000Y785500D02*
D03*
D32*
Y758500D02*
D03*
D33*
Y803750D02*
D03*
Y736250D02*
D03*
D34*
X836500Y622000D02*
D03*
X973500D02*
D03*
M02*
