G04*
G04 #@! TF.GenerationSoftware,Altium Limited,Altium Designer,26.9.1 (10)*
G04*
G04 Layer_Physical_Order=2*
G04 Layer_Color=36540*
G04 Board_Origin=0|0*
%FSLAX44Y44*%
%MOMM*%
G71*
G04*
G04 #@! TF.SameCoordinates,2B30B767-B6A9-40EE-994A-0163BAC84609*
G04*
G04*
G04 #@! TF.FilePolarity,Positive*
G04*
G01*
G75*
%ADD39C,1.5240*%
%ADD40C,1.0160*%
%ADD41C,1.2700*%
%ADD42C,0.7500*%
%ADD43C,0.5000*%
G36*
X1233719Y898485D02*
X1233855Y897460D01*
X1232302Y895907D01*
X1231036Y893713D01*
X1230380Y891266D01*
Y888734D01*
X1231036Y886287D01*
X1232302Y884093D01*
X1234093Y882302D01*
X1236287Y881036D01*
X1238734Y880380D01*
X1241266D01*
X1243713Y881036D01*
X1245907Y882302D01*
X1247460Y883855D01*
X1248485Y883719D01*
X1250000Y883000D01*
Y577000D01*
X1248485Y576281D01*
X1247460Y576145D01*
X1245907Y577698D01*
X1243713Y578964D01*
X1241266Y579620D01*
X1238734D01*
X1236287Y578964D01*
X1234093Y577698D01*
X1232302Y575907D01*
X1231036Y573713D01*
X1230380Y571267D01*
Y568733D01*
X1231036Y566287D01*
X1232302Y564093D01*
X1233855Y562540D01*
X1233719Y561515D01*
X1233000Y560000D01*
X737000D01*
X736281Y561515D01*
X736145Y562540D01*
X737698Y564093D01*
X738964Y566287D01*
X739620Y568733D01*
Y571267D01*
X738964Y573713D01*
X737698Y575907D01*
X735907Y577698D01*
X733713Y578964D01*
X731266Y579620D01*
X728734D01*
X726287Y578964D01*
X724093Y577698D01*
X722540Y576145D01*
X721515Y576281D01*
X720000Y577000D01*
Y883000D01*
X721515Y883719D01*
X722540Y883855D01*
X724093Y882302D01*
X726287Y881036D01*
X728734Y880380D01*
X731266D01*
X733713Y881036D01*
X735907Y882302D01*
X737698Y884093D01*
X738964Y886287D01*
X739620Y888734D01*
Y891266D01*
X738964Y893713D01*
X737698Y895907D01*
X736145Y897460D01*
X736281Y898485D01*
X737000Y900000D01*
X1233000D01*
X1233719Y898485D01*
D02*
G37*
%LPC*%
G36*
X941099Y890850D02*
X938901D01*
X936777Y890281D01*
X934873Y889182D01*
X933318Y887627D01*
X932219Y885723D01*
X931650Y883599D01*
Y881401D01*
X932219Y879277D01*
X933318Y877373D01*
X934873Y875818D01*
X936777Y874719D01*
X938901Y874150D01*
X941099D01*
X943223Y874719D01*
X945127Y875818D01*
X946682Y877373D01*
X947781Y879277D01*
X948350Y881401D01*
Y883599D01*
X947781Y885723D01*
X946682Y887627D01*
X945127Y889182D01*
X943223Y890281D01*
X941099Y890850D01*
D02*
G37*
G36*
X826099D02*
X823901D01*
X821777Y890281D01*
X819873Y889182D01*
X818318Y887627D01*
X817219Y885723D01*
X816650Y883599D01*
Y881401D01*
X817219Y879277D01*
X818318Y877373D01*
X819873Y875818D01*
X821777Y874719D01*
X823901Y874150D01*
X826099D01*
X828223Y874719D01*
X830127Y875818D01*
X831682Y877373D01*
X832781Y879277D01*
X833350Y881401D01*
Y883599D01*
X832781Y885723D01*
X831682Y887627D01*
X830127Y889182D01*
X828223Y890281D01*
X826099Y890850D01*
D02*
G37*
G36*
X968599Y885850D02*
X966401D01*
X964277Y885281D01*
X962373Y884182D01*
X960818Y882627D01*
X959719Y880723D01*
X959150Y878599D01*
Y876401D01*
X959719Y874277D01*
X960818Y872373D01*
X962373Y870818D01*
X964277Y869719D01*
X966401Y869150D01*
X968599D01*
X970723Y869719D01*
X972627Y870818D01*
X974182Y872373D01*
X975281Y874277D01*
X975850Y876401D01*
Y878599D01*
X975281Y880723D01*
X974182Y882627D01*
X972627Y884182D01*
X970723Y885281D01*
X968599Y885850D01*
D02*
G37*
G36*
X1030532Y850890D02*
X1028668D01*
X1026867Y850407D01*
X1025253Y849475D01*
X1023935Y848157D01*
X1023002Y846543D01*
X1022520Y844742D01*
Y842878D01*
X1023002Y841077D01*
X1023935Y839463D01*
X1025253Y838145D01*
X1026867Y837213D01*
X1028668Y836730D01*
X1030532D01*
X1032333Y837213D01*
X1033947Y838145D01*
X1035265Y839463D01*
X1036198Y841077D01*
X1036680Y842878D01*
Y844742D01*
X1036198Y846543D01*
X1035265Y848157D01*
X1033947Y849475D01*
X1032333Y850407D01*
X1030532Y850890D01*
D02*
G37*
G36*
X1081332Y840730D02*
X1079468D01*
X1077667Y840247D01*
X1076053Y839315D01*
X1074735Y837997D01*
X1073802Y836383D01*
X1073320Y834582D01*
Y832718D01*
X1073802Y830917D01*
X1074735Y829303D01*
X1076053Y827985D01*
X1077667Y827053D01*
X1079468Y826570D01*
X1081332D01*
X1083133Y827053D01*
X1084747Y827985D01*
X1086065Y829303D01*
X1086998Y830917D01*
X1087480Y832718D01*
Y834582D01*
X1086998Y836383D01*
X1086065Y837997D01*
X1084747Y839315D01*
X1083133Y840247D01*
X1081332Y840730D01*
D02*
G37*
G36*
X811645Y822500D02*
X809855D01*
X808201Y821815D01*
X806935Y820549D01*
X806597Y819732D01*
X803903D01*
X803565Y820549D01*
X802299Y821815D01*
X800645Y822500D01*
X798855D01*
X797201Y821815D01*
X795935Y820549D01*
X795250Y818895D01*
Y817105D01*
X795935Y815451D01*
X797201Y814185D01*
X798018Y813847D01*
Y811153D01*
X797201Y810815D01*
X795935Y809549D01*
X795250Y807895D01*
Y806105D01*
X795935Y804451D01*
X797201Y803185D01*
X798855Y802500D01*
X800645D01*
X802299Y803185D01*
X803565Y804451D01*
X803903Y805268D01*
X806597D01*
X806935Y804451D01*
X808201Y803185D01*
X809855Y802500D01*
X811645D01*
X813299Y803185D01*
X814565Y804451D01*
X815250Y806105D01*
Y807895D01*
X814565Y809549D01*
X813299Y810815D01*
X812482Y811153D01*
Y813847D01*
X813299Y814185D01*
X814565Y815451D01*
X815250Y817105D01*
Y818895D01*
X814565Y820549D01*
X813299Y821815D01*
X811645Y822500D01*
D02*
G37*
G36*
X873599Y833350D02*
X871401D01*
X869277Y832781D01*
X867373Y831682D01*
X865818Y830127D01*
X864719Y828223D01*
X864150Y826099D01*
Y823901D01*
X864719Y821777D01*
X865818Y819873D01*
X867373Y818318D01*
X869277Y817219D01*
X871401Y816650D01*
X873599D01*
X875723Y817219D01*
X877627Y818318D01*
X879182Y819873D01*
X880281Y821777D01*
X880850Y823901D01*
Y826099D01*
X880281Y828223D01*
X879182Y830127D01*
X877627Y831682D01*
X875723Y832781D01*
X873599Y833350D01*
D02*
G37*
G36*
X1030532Y830570D02*
X1028668D01*
X1026867Y830088D01*
X1025253Y829155D01*
X1023935Y827837D01*
X1023002Y826223D01*
X1022520Y824422D01*
Y822558D01*
X1023002Y820757D01*
X1023935Y819143D01*
X1025253Y817825D01*
X1026867Y816892D01*
X1028668Y816410D01*
X1030532D01*
X1032333Y816892D01*
X1033947Y817825D01*
X1035265Y819143D01*
X1036198Y820757D01*
X1036680Y822558D01*
Y824422D01*
X1036198Y826223D01*
X1035265Y827837D01*
X1033947Y829155D01*
X1032333Y830088D01*
X1030532Y830570D01*
D02*
G37*
G36*
X843599Y818350D02*
X841401D01*
X839277Y817781D01*
X837373Y816682D01*
X835818Y815127D01*
X834719Y813223D01*
X834150Y811099D01*
Y808901D01*
X834719Y806777D01*
X835818Y804873D01*
X837373Y803318D01*
X839277Y802219D01*
X841401Y801650D01*
X843599D01*
X845723Y802219D01*
X847627Y803318D01*
X849182Y804873D01*
X850281Y806777D01*
X850850Y808901D01*
Y811099D01*
X850281Y813223D01*
X849182Y815127D01*
X847627Y816682D01*
X845723Y817781D01*
X843599Y818350D01*
D02*
G37*
G36*
X1091099Y800850D02*
X1088901D01*
X1086777Y800281D01*
X1084873Y799182D01*
X1083318Y797627D01*
X1082219Y795723D01*
X1081650Y793599D01*
Y791401D01*
X1082219Y789277D01*
X1083318Y787373D01*
X1084873Y785818D01*
X1086777Y784719D01*
X1088901Y784150D01*
X1091099D01*
X1093223Y784719D01*
X1095127Y785818D01*
X1096682Y787373D01*
X1097781Y789277D01*
X1098350Y791401D01*
Y793599D01*
X1097781Y795723D01*
X1096682Y797627D01*
X1095127Y799182D01*
X1093223Y800281D01*
X1091099Y800850D01*
D02*
G37*
G36*
X1066099D02*
X1063901D01*
X1061777Y800281D01*
X1059873Y799182D01*
X1058318Y797627D01*
X1057219Y795723D01*
X1056650Y793599D01*
Y791401D01*
X1057219Y789277D01*
X1058318Y787373D01*
X1059873Y785818D01*
X1061777Y784719D01*
X1063901Y784150D01*
X1066099D01*
X1068223Y784719D01*
X1070127Y785818D01*
X1071682Y787373D01*
X1072781Y789277D01*
X1073350Y791401D01*
Y793599D01*
X1072781Y795723D01*
X1071682Y797627D01*
X1070127Y799182D01*
X1068223Y800281D01*
X1066099Y800850D01*
D02*
G37*
G36*
X756099Y799250D02*
X753901D01*
X751777Y798681D01*
X749873Y797582D01*
X748318Y796027D01*
X747219Y794123D01*
X746650Y791999D01*
Y789801D01*
X747219Y787677D01*
X748318Y785773D01*
X749873Y784218D01*
X751777Y783119D01*
X753901Y782550D01*
X756099D01*
X758223Y783119D01*
X760127Y784218D01*
X761682Y785773D01*
X762781Y787677D01*
X763350Y789801D01*
Y791999D01*
X762781Y794123D01*
X761682Y796027D01*
X760127Y797582D01*
X758223Y798681D01*
X756099Y799250D01*
D02*
G37*
G36*
X998895Y779000D02*
X997105D01*
X995451Y778315D01*
X994185Y777049D01*
X993847Y776232D01*
X991153D01*
X990815Y777049D01*
X989549Y778315D01*
X987895Y779000D01*
X986105D01*
X984451Y778315D01*
X983185Y777049D01*
X982847Y776232D01*
X980153D01*
X979815Y777049D01*
X978549Y778315D01*
X976895Y779000D01*
X975105D01*
X973451Y778315D01*
X972185Y777049D01*
X971847Y776232D01*
X969153D01*
X968815Y777049D01*
X967549Y778315D01*
X965895Y779000D01*
X964105D01*
X962451Y778315D01*
X961185Y777049D01*
X960847Y776232D01*
X958153D01*
X957815Y777049D01*
X956549Y778315D01*
X954895Y779000D01*
X953105D01*
X951451Y778315D01*
X950185Y777049D01*
X949500Y775395D01*
Y773605D01*
X950185Y771951D01*
X951451Y770685D01*
X952268Y770347D01*
Y767653D01*
X951451Y767315D01*
X950185Y766049D01*
X949500Y764395D01*
Y762605D01*
X950185Y760951D01*
X951451Y759685D01*
X952268Y759347D01*
Y756653D01*
X951451Y756315D01*
X950185Y755049D01*
X949500Y753395D01*
Y751605D01*
X950185Y749951D01*
X951451Y748685D01*
X952268Y748347D01*
Y745653D01*
X951451Y745315D01*
X950185Y744049D01*
X949500Y742395D01*
Y740605D01*
X950185Y738951D01*
X951451Y737685D01*
X952268Y737347D01*
Y734653D01*
X951451Y734315D01*
X950185Y733049D01*
X949500Y731395D01*
Y729605D01*
X950185Y727951D01*
X951451Y726685D01*
X953105Y726000D01*
X954895D01*
X956549Y726685D01*
X957815Y727951D01*
X958153Y728768D01*
X960847D01*
X961185Y727951D01*
X962451Y726685D01*
X964105Y726000D01*
X965895D01*
X967549Y726685D01*
X968815Y727951D01*
X969153Y728768D01*
X971847D01*
X972185Y727951D01*
X973451Y726685D01*
X975105Y726000D01*
X976895D01*
X978549Y726685D01*
X979815Y727951D01*
X980153Y728768D01*
X982847D01*
X983185Y727951D01*
X984451Y726685D01*
X986105Y726000D01*
X987895D01*
X989549Y726685D01*
X990815Y727951D01*
X991153Y728768D01*
X993847D01*
X994185Y727951D01*
X995451Y726685D01*
X997105Y726000D01*
X998895D01*
X1000549Y726685D01*
X1001815Y727951D01*
X1002500Y729605D01*
Y731395D01*
X1001815Y733049D01*
X1000549Y734315D01*
X999732Y734653D01*
Y737347D01*
X1000549Y737685D01*
X1001815Y738951D01*
X1002500Y740605D01*
Y742395D01*
X1001815Y744049D01*
X1000549Y745315D01*
X999732Y745653D01*
Y748347D01*
X1000549Y748685D01*
X1001815Y749951D01*
X1002500Y751605D01*
Y753395D01*
X1001815Y755049D01*
X1000549Y756315D01*
X999732Y756653D01*
Y759347D01*
X1000549Y759685D01*
X1001815Y760951D01*
X1002500Y762605D01*
Y764395D01*
X1001815Y766049D01*
X1000549Y767315D01*
X999732Y767653D01*
Y770347D01*
X1000549Y770685D01*
X1001815Y771951D01*
X1002500Y773605D01*
Y775395D01*
X1001815Y777049D01*
X1000549Y778315D01*
X998895Y779000D01*
D02*
G37*
G36*
X898644Y765750D02*
X896356D01*
X894243Y764875D01*
X892625Y763257D01*
X891750Y761144D01*
Y758856D01*
X892625Y756743D01*
X894243Y755125D01*
X896356Y754250D01*
X898644D01*
X900757Y755125D01*
X902375Y756743D01*
X903250Y758856D01*
Y761144D01*
X902375Y763257D01*
X900757Y764875D01*
X898644Y765750D01*
D02*
G37*
G36*
X928753Y762967D02*
X926465D01*
X924352Y762091D01*
X922734Y760474D01*
X921859Y758360D01*
Y756073D01*
X922734Y753960D01*
X924352Y752342D01*
X926465Y751467D01*
X928753D01*
X930866Y752342D01*
X932484Y753960D01*
X933359Y756073D01*
Y758360D01*
X932484Y760474D01*
X930866Y762091D01*
X928753Y762967D01*
D02*
G37*
G36*
X801099Y753350D02*
X798901D01*
X796777Y752781D01*
X794873Y751682D01*
X793318Y750127D01*
X792219Y748223D01*
X791650Y746099D01*
Y743901D01*
X792219Y741777D01*
X793318Y739873D01*
X794873Y738318D01*
X796777Y737219D01*
X798901Y736650D01*
X801099D01*
X803223Y737219D01*
X805127Y738318D01*
X806682Y739873D01*
X807781Y741777D01*
X808350Y743901D01*
Y746099D01*
X807781Y748223D01*
X806682Y750127D01*
X805127Y751682D01*
X803223Y752781D01*
X801099Y753350D01*
D02*
G37*
%LPD*%
D39*
X1240000Y570000D02*
D03*
Y890000D02*
D03*
X730000D02*
D03*
Y570000D02*
D03*
D40*
X1029600Y843810D02*
D03*
Y823490D02*
D03*
X1080400Y833650D02*
D03*
D41*
X755000Y790900D02*
D03*
X800000Y745000D02*
D03*
X842500Y810000D02*
D03*
X825000Y882500D02*
D03*
X967500Y877500D02*
D03*
X940000Y882500D02*
D03*
X1065000Y792500D02*
D03*
X1090000D02*
D03*
X872500Y825000D02*
D03*
D42*
X897500Y760000D02*
D03*
X927609Y757217D02*
D03*
D43*
X998000Y774500D02*
D03*
X987000D02*
D03*
X998000Y763500D02*
D03*
Y741500D02*
D03*
Y752500D02*
D03*
X987000D02*
D03*
Y763500D02*
D03*
Y741500D02*
D03*
X976000D02*
D03*
X998000Y730500D02*
D03*
X987000D02*
D03*
X965000Y774500D02*
D03*
X954000D02*
D03*
X810750Y818000D02*
D03*
X799750D02*
D03*
X810750Y807000D02*
D03*
X799750D02*
D03*
X976000Y763500D02*
D03*
Y774500D02*
D03*
Y752500D02*
D03*
X965000D02*
D03*
Y763500D02*
D03*
X954000Y752500D02*
D03*
Y741500D02*
D03*
X965000Y730500D02*
D03*
Y741500D02*
D03*
X976000Y730500D02*
D03*
X954000D02*
D03*
Y763500D02*
D03*
M02*
